<?xml version="1.0" encoding="UTF-8"?><svg xmlns="http://www.w3.org/2000/svg" width="32" height="32" viewBox="0 0 32 32">
  <g id="Behance" transform="translate(0 0.354)">
    <g id="Layer_2" data-name="Layer 2" transform="translate(0 0)">
      <g id="Surfaces">
        <g id="Utility_Surface" data-name="Utility Surface">
          <g id="Outline_no_shadow" data-name="Outline no shadow">
            <rect id="Rectangle_220791" data-name="Rectangle 220791" width="32" height="32" rx="6" transform="translate(0 -0.354)" fill="#000b1d"/>
          </g>
        </g>
      </g>
      <g id="Outlined_Mnemonics_Logos" data-name="Outlined Mnemonics Logos" transform="translate(5.654 9)">
        <g id="Be">
          <path id="Path_357403" data-name="Path 357403" d="M9.785,27.666V14.034c0-.129.043-.2.129-.214q.365-.022,1.116-.032l1.632-.021q.88-.01,1.61-.011a8.262,8.262,0,0,1,2.8.387,4.147,4.147,0,0,1,1.6.977,3.113,3.113,0,0,1,.751,1.234,4.117,4.117,0,0,1,.193,1.18,3.412,3.412,0,0,1-.214,1.256,3.356,3.356,0,0,1-.515.912,2.45,2.45,0,0,1-.58.537,4.3,4.3,0,0,1,.848.59,3.5,3.5,0,0,1,.8,1.063,3.578,3.578,0,0,1,.343,1.652,3.762,3.762,0,0,1-.719,2.276,4.636,4.636,0,0,1-2.061,1.535,8.478,8.478,0,0,1-3.21.548H12.887q-.677,0-1.245-.011l-.987-.021q-.419-.011-.719-.011C9.835,27.845,9.785,27.781,9.785,27.666Zm2.9-11.356v2.984h1.459q.58,0,1.138.021a3.991,3.991,0,0,1,.794.086,1.953,1.953,0,0,0,.462-.58,1.826,1.826,0,0,0,.183-.859,1.518,1.518,0,0,0-.279-.944,1.672,1.672,0,0,0-.805-.548,4.169,4.169,0,0,0-1.342-.183h-.622c-.186,0-.354,0-.5.011S12.855,16.31,12.683,16.31Zm0,5.517v3.542q.365.021.73.032t.88.011a5.684,5.684,0,0,0,1.557-.194,2.013,2.013,0,0,0,1.02-.6,1.514,1.514,0,0,0,.343-1.009,1.805,1.805,0,0,0-.279-1.009,1.659,1.659,0,0,0-1.03-.623,5.382,5.382,0,0,0-.59-.107,6.229,6.229,0,0,0-.783-.043Z" transform="translate(-9.785 -13.755)" fill="#fff"/>
          <path id="Path_357404" data-name="Path 357404" d="M37.639,25.66H33.41a2.763,2.763,0,0,0,.408,1.127,2.209,2.209,0,0,0,.977.805,4.117,4.117,0,0,0,1.706.3,7.778,7.778,0,0,0,1.385-.118,5.733,5.733,0,0,0,1.256-.376c.072-.057.107-.021.107.107v2.04a.315.315,0,0,1-.032.161.3.3,0,0,1-.1.1,5.994,5.994,0,0,1-1.4.462,9.415,9.415,0,0,1-1.889.161,6.131,6.131,0,0,1-2.555-.472,4.554,4.554,0,0,1-1.674-1.267,4.948,4.948,0,0,1-.923-1.75,6.866,6.866,0,0,1-.279-1.942,6.773,6.773,0,0,1,.332-2.115,5.528,5.528,0,0,1,1-1.825,4.8,4.8,0,0,1,1.61-1.266,5.042,5.042,0,0,1,2.233-.462,4.847,4.847,0,0,1,2.071.408,3.748,3.748,0,0,1,1.406,1.106,4.878,4.878,0,0,1,.794,1.513,5.393,5.393,0,0,1,.258,1.632q0,.472-.032.859t-.054.558a.194.194,0,0,1-.193.172c-.086,0-.232.011-.44.032s-.465.036-.772.043S37.983,25.66,37.639,25.66ZM33.41,23.578h2.812q.516,0,.762-.011a1.523,1.523,0,0,0,.311-.032v-.129a1.709,1.709,0,0,0-.086-.494,1.754,1.754,0,0,0-1.739-1.224A1.864,1.864,0,0,0,33.7,22.7,2.706,2.706,0,0,0,33.41,23.578Z" transform="translate(-18.491 -16.107)" fill="#fff"/>
        </g>
      </g>
    </g>
  </g>
</svg>
