<?xml version="1.0" encoding="UTF-8"?><svg width="27" height="26" viewBox="0 0 27 26" fill="none" xmlns="http://www.w3.org/2000/svg">
<path d="M21 -0.000976562H6C2.68629 -0.000976562 0 2.68531 0 5.99902V19.999C0 23.3127 2.68629 25.999 6 25.999H21C24.3137 25.999 27 23.3127 27 19.999V5.99902C27 2.68531 24.3137 -0.000976562 21 -0.000976562Z" fill="#000B1D"/>
<path d="M18.8746 10.2493H16.7746C16.7285 10.2493 16.6829 10.2584 16.6403 10.276C16.5977 10.2936 16.559 10.3195 16.5264 10.3521C16.4938 10.3847 16.468 10.4234 16.4503 10.466C16.4327 10.5085 16.4236 10.5542 16.4236 10.6003V11.3003C16.4236 11.3934 16.4606 11.4826 16.5264 11.5485C16.5922 11.6143 16.6815 11.6513 16.7746 11.6513H17.8266V17.2613H9.40562V11.6493H10.4596C10.5513 11.648 10.6389 11.6108 10.7035 11.5458C10.7682 11.4808 10.8048 11.393 10.8056 11.3013V10.6013C10.8059 10.5089 10.7697 10.4201 10.7049 10.3542C10.6402 10.2883 10.552 10.2506 10.4596 10.2493H8.35962C8.31327 10.2489 8.2673 10.2577 8.22437 10.2751C8.18144 10.2926 8.14239 10.3184 8.10948 10.351C8.07657 10.3837 8.05044 10.4225 8.03262 10.4653C8.01479 10.508 8.00561 10.5539 8.00562 10.6003V18.3143C8.00562 18.4074 8.0426 18.4966 8.10842 18.5625C8.17425 18.6283 8.26352 18.6653 8.35662 18.6653H18.8746C18.9677 18.6653 19.057 18.6283 19.1228 18.5625C19.1886 18.4966 19.2256 18.4074 19.2256 18.3143V10.6003C19.2256 10.5072 19.1886 10.4179 19.1228 10.3521C19.057 10.2863 18.9677 10.2493 18.8746 10.2493Z" fill="white"/>
<path d="M11.0906 9.54719H12.9106V13.4042C12.9106 13.4973 12.9475 13.5866 13.0134 13.6524C13.0792 13.7182 13.1685 13.7552 13.2616 13.7552H13.9616C14.0547 13.7552 14.1439 13.7182 14.2098 13.6524C14.2756 13.5866 14.3126 13.4973 14.3126 13.4042V9.54719H16.1356C16.2098 9.54719 16.281 9.51769 16.3336 9.46518C16.3861 9.41267 16.4156 9.34145 16.4156 9.26719C16.4159 9.19899 16.391 9.13309 16.3456 9.08219L13.7386 6.79319C13.7059 6.76112 13.6619 6.74316 13.6161 6.74316C13.5703 6.74316 13.5263 6.76112 13.4936 6.79319L10.8806 9.08019C10.8347 9.1316 10.8097 9.1983 10.8106 9.26719C10.8106 9.30396 10.8178 9.34037 10.8319 9.37434C10.846 9.40831 10.8666 9.43918 10.8926 9.46518C10.9186 9.49118 10.9494 9.5118 10.9834 9.52588C11.0174 9.53995 11.0538 9.54719 11.0906 9.54719Z" fill="white"/>
</svg>
