<?xml version="1.0" standalone="no"?>
<!DOCTYPE svg PUBLIC "-//W3C//DTD SVG 1.0//EN" "http://www.w3.org/TR/2001/REC-SVG-20010904/DTD/svg10.dtd">
<svg xmlns="http://www.w3.org/2000/svg" xmlns:xlink="http://www.w3.org/1999/xlink" id="body_1" width="55" height="54">

<g transform="matrix(0.22916667 0 0 0.22916667 -0 0.18750048)">
	<g>
		<g>
			<g>
                <path d="M0 42.5C 0 19.027899 19.027899 0 42.5 0L42.5 0L197.5 0C 220.9721 0 240 19.027899 240 42.5L240 42.5L240 191.5C 240 214.9721 220.9721 234 197.5 234L197.5 234L42.5 234C 19.027899 234 0 214.9721 0 191.5L0 191.5L0 42.5z" stroke="none" fill="#EB1000" fill-rule="nonzero" />
			</g>
		</g>
	</g>
	<g>
		<g>
            <path d="M131.00618 156.75404C 131.00618 157.7489 130.19974 158.55534 129.20488 158.55534C 128.21002 158.55534 127.40358 157.7489 127.40358 156.75404C 127.40358 155.75919 128.21002 154.95274 129.20488 154.95274C 130.19974 154.95274 131.00618 155.75919 131.00618 156.75404zM127.40358 161.07265C 126.87222 161.07265 126.4062 161.27866 126.00424 161.56506C 126.08339 161.33394 126.151215 161.09528 126.151215 160.8365C 126.151215 159.57785 125.129974 158.55536 123.87007 158.55536C 122.61017 158.55536 121.58893 159.57785 121.58893 160.8365C 121.58893 162.09766 122.61017 163.11765 123.87007 163.11765C 124.34112 163.11765 124.754395 162.94179 125.11867 162.69559C 125.0232 162.95686 124.95035 163.23322 124.95035 163.52715C 124.95035 164.88126 126.04947 165.98163 127.40358 165.98163C 128.75896 165.98163 129.85806 164.88126 129.85806 163.52715C 129.85806 162.17303 128.75894 161.07266 127.40358 161.07266L127.40358 161.07266L127.40358 161.07265zM123.14024 166.51926C 123.051056 165.04707 121.85773 163.87132 120.36293 163.87132C 120.1004 163.87132 119.86424 163.95422 119.62432 164.01955C 120.056435 163.54724 120.33655 162.93173 120.33655 162.24086C 120.33655 160.77621 119.14825 159.5879 117.683586 159.5879C 116.218925 159.5879 115.030624 160.7762 115.030624 162.24086C 115.030624 163.70552 116.218925 164.89381 117.683586 164.89381C 117.91221 164.89381 118.11696 164.81845 118.32924 164.76317C 117.854416 165.26562 117.55169 165.9364 117.55169 166.68254C 117.55169 167.96129 118.42345 168.99634 119.59291 169.33801C 119.59165 169.37569 119.57156 169.40584 119.57156 169.44353C 119.57156 171.1167 120.92944 172.47583 122.60513 172.47583C 124.27956 172.47583 125.637436 171.11668 125.637436 169.44353C 125.637436 167.95877 124.54963 166.78052 123.14023 166.51924L123.14023 166.51924L123.14025 166.51926zM116.125984 169.25261C 116.25787 168.90843 116.34833 168.54414 116.34833 168.15222C 116.34833 166.54437 115.11104 165.26562 113.544624 165.10986C 113.93025 164.61745 114.197815 164.02457 114.197815 163.34877C 114.197815 161.962 113.206726 160.85912 111.907875 160.5702C 112.50202 160.07529 112.90273 159.35928 112.90273 158.52522C 112.90273 157.49016 112.29978 156.61841 111.4431 156.16872C 112.76707 156.11093 113.8285 155.03569 113.8285 153.69916C 113.8285 152.32495 112.71431 151.212 111.34009 151.212C 109.965866 151.212 108.85168 152.32495 108.85168 153.69916C 108.85168 154.63121 109.38679 155.41504 110.14676 155.84213C 108.687126 155.87479 107.508865 157.05556 107.508865 158.52524C 107.508865 159.78389 108.38941 160.7913 109.553856 161.09027C 108.868004 161.62036 108.39696 162.41425 108.39696 163.3488C 108.39696 164.81345 109.49985 165.97412 110.910484 166.17259C 110.453255 166.71274 110.14549 167.38853 110.14549 168.15227C 110.14549 169.63954 111.21446 170.82281 112.61003 171.12428C 112.38016 171.58905 112.22188 172.09402 112.22188 172.64923C 112.22188 174.57112 113.78075 176.12874 115.70263 176.12874C 117.62451 176.12874 119.18338 174.57112 119.18338 172.64923C 119.18338 170.87808 117.83931 169.4712 116.12594 169.25264L116.12594 169.25264L116.12599 169.25261zM80.51076 147.8782C 80.51076 149.11174 79.8023 150.14929 78.79613 150.71457C 78.97953 150.68192 79.14658 150.60403 79.338776 150.60403C 81.16395 150.60403 82.64367 152.08377 82.64367 153.90767C 82.64367 154.43524 82.49419 154.91508 82.27562 155.35725C 82.85219 154.85982 83.57949 154.5282 84.401 154.5282C 86.19225 154.5282 87.63681 155.96523 87.67826 157.74641C 88.03375 156.38225 89.19442 155.3698 90.65153 155.30449C 90.34755 154.84726 90.126465 154.32722 90.126465 153.73431C 90.126465 152.13148 91.42531 150.83264 93.02814 150.83264C 94.62971 150.83264 95.92856 152.13148 95.92856 153.73431C 95.92856 155.22661 94.78673 156.4124 93.33715 156.57318C 93.77052 157.12839 94.07073 157.79666 94.07073 158.55536C 94.07073 159.41203 93.724045 160.17828 93.18641 160.76114C 93.78182 161.33646 94.13354 162.12279 94.229 162.98953C 94.325714 162.15546 94.68874 161.41434 95.27913 160.87671C 94.61212 160.30641 94.16745 159.48994 94.16745 158.54532C 94.16745 156.9249 95.42233 155.63611 97.00632 155.4929C 96.603096 155.00804 96.329254 154.40509 96.329254 153.72426C 96.329254 152.70177 96.902054 151.8476 97.71603 151.3552C 96.51516 151.16176 95.58185 150.1669 95.58185 148.90825C 95.58185 147.51395 96.71237 146.38342 98.10794 146.38342C 99.50351 146.38342 100.63403 147.51395 100.63403 148.90825C 100.63403 149.79257 100.15419 150.53117 99.468346 150.98338C 100.85387 151.15422 101.94293 152.28976 101.94293 153.72427C 101.94293 155.13365 100.88778 156.2491 99.53617 156.45009C 100.04867 157.00279 100.377785 157.73135 100.377785 158.54533C 100.377785 159.37187 100.0424 160.11299 99.51482 160.67072C 100.36146 161.28874 100.946815 162.23837 100.946815 163.36638C 100.946815 163.98189 100.7383 164.52956 100.4519 165.027C 101.569855 165.66008 102.35746 166.81322 102.35746 168.18744C 102.35746 168.58186 102.24818 168.94363 102.13261 169.30038C 102.51447 169.48126 102.86243 169.7149 103.16766 169.9988C 102.81971 169.4662 102.56597 168.86577 102.56597 168.1799C 102.56597 167.45638 102.84358 166.82076 103.23172 166.26807C 102.07733 165.80078 101.25959 164.68031 101.25959 163.35635C 101.25959 162.41928 101.68919 161.60028 102.33987 161.02496C 101.46183 160.52502 100.84256 159.61809 100.84256 158.53531C 100.84256 157.0179 102.01956 155.81201 103.50306 155.68137C 102.9491 155.1965 102.58106 154.50563 102.58106 153.71175C 102.58106 152.62645 103.23676 151.69942 104.17133 151.28992C 104.033165 151.31503 103.90755 151.37282 103.76309 151.37282C 102.395164 151.37282 101.287254 150.2624 101.287254 148.89572C 101.287254 147.52904 102.395164 146.41862 103.76309 146.41862C 105.13102 146.41862 106.23893 147.52904 106.23893 148.89572C 106.23893 149.90817 105.62594 150.7774 104.75418 151.15929C 104.91371 151.12914 105.060684 151.06381 105.229004 151.06381C 106.69115 151.06381 107.876945 152.2496 107.876945 153.71175C 107.876945 155.06837 106.84064 156.14865 105.52421 156.2994C 106.18996 156.83199 106.64468 157.61583 106.64468 158.53531C 106.64468 159.3292 106.323105 160.0477 105.80557 160.57025C 106.83309 161.09029 107.556625 162.12787 107.556625 163.35635C 107.556625 163.97438 107.33304 164.51703 107.025276 165.00441C 108.36809 165.45662 109.34913 166.68764 109.34913 168.17992C 109.34913 168.59695 109.2499 168.98636 109.11172 169.35565C 110.71957 169.82544 111.91793 171.24991 111.91793 173.0085C 111.91793 175.14394 110.18697 176.8749 108.051544 176.8749C 106.207535 176.8749 104.737854 175.55595 104.35097 173.8275C 103.96408 175.70918 102.37632 177.15125 100.37907 177.15125C 98.75488 177.15125 97.38193 176.19156 96.704865 174.82991C 96.011475 176.35738 94.491554 177.43011 92.70532 177.43011C 91.07109 177.43011 89.701904 176.49806 88.94068 175.1766C 88.16941 176.57092 86.73867 177.55322 85.032845 177.55322C 83.38103 177.55322 81.996765 176.62369 81.20666 175.29971C 80.41529 176.63373 79.02224 177.5708 77.35911 177.5708C 75.41587 177.5708 73.78666 176.33727 73.13849 174.62138C 72.31446 175.44038 71.18143 175.94786 69.92781 175.94786C 67.41177 175.94786 65.37055 173.9079 65.37055 171.3906C 65.37055 171.19464 65.45848 171.02632 65.48235 170.83789C 65.01633 171.00119 64.532715 171.13434 64.01016 171.13434C 61.512962 171.13434 59.48807 169.10945 59.48807 166.61224C 59.48807 165.63245 59.866173 164.77577 60.395 164.03465C 58.15908 163.82864 56.38793 162.00725 56.38793 159.71605C 56.38793 157.97253 57.42424 156.4928 58.898952 155.78183C 57.59759 155.05077 56.68061 153.70921 56.68061 152.1114C 56.68061 149.80765 58.514572 147.9561 60.79948 147.87068C 60.0659 147.12454 59.60741 146.10204 59.60741 144.97153C 59.60741 142.68034 61.46398 140.82376 63.75517 140.82376C 63.82426 140.82376 63.88204 140.85893 63.95113 140.86397C 63.15223 140.11783 62.63721 139.07523 62.63721 137.89445C 62.63721 135.63593 64.4674 133.80699 66.72593 133.80699C 66.893 133.80699 67.033676 133.88235 67.194466 133.90247C 66.28503 133.16385 65.66701 132.08107 65.66701 130.8174C 65.66701 128.59152 67.47082 126.787704 69.695435 126.787704C 69.95922 126.787704 70.189095 126.88819 70.43781 126.938446C 69.41155 126.21993 68.696815 125.08942 68.696815 123.740326C 68.696815 121.54712 70.47424 119.770935 72.66621 119.770935C 73.02798 119.770935 73.35332 119.8865 73.68745 119.976944C 72.53683 119.29611 71.726616 118.09776 71.726616 116.66325C 71.726616 114.5027 73.47767 112.75164 75.63696 112.75164C 76.09545 112.75164 76.52002 112.8672 76.928276 113.01292C 75.6533 112.38485 74.75642 111.101074 74.75642 109.586174C 74.75642 107.45828 76.481094 105.73486 78.60773 105.73486C 79.74202 105.73486 80.73688 106.24485 81.44157 107.02618C 81.88247 106.83273 82.36483 106.71465 82.878586 106.71465C 84.026695 106.71465 85.00146 107.28996 85.65591 108.13158C 86.105606 107.900444 86.5955 107.737144 87.13689 107.737144C 88.31012 107.737144 89.29115 108.385315 89.87275 109.30982C 90.31491 109.05357 90.79978 108.86766 91.34871 108.86766C 92.74302 108.86766 93.862236 109.8374 94.198875 111.12619C 94.49909 111.01314 94.816895 110.93275 95.1573 110.93275C 96.662155 110.93275 97.88187 112.1512 97.88187 113.656044C 97.88187 114.45494 97.52512 115.155876 96.97745 115.655815C 97.26385 115.535225 97.57788 115.46739 97.90825 115.46739C 99.237236 115.46739 100.31375 116.54515 100.31375 117.87415C 100.31375 118.52734 100.04871 119.11772 99.62539 119.54984C 100.00474 119.208176 100.49464 118.98709 101.04482 118.98709C 102.22936 118.98709 103.1903 119.94678 103.1903 121.13257C 103.1903 122.31585 102.22936 123.275536 101.04482 123.275536C 99.86154 123.275536 98.900604 122.31585 98.900604 121.13257C 98.900604 120.54972 99.13676 120.02466 99.513596 119.63777C 99.0865 120.02717 98.531296 120.278404 97.90826 120.278404C 96.58051 120.278404 95.50401 119.200645 95.50401 117.87416C 95.50401 117.20841 95.776596 116.60546 96.21373 116.16833C 95.88965 116.306496 95.5329 116.38187 95.15732 116.38187C 93.97655 116.38187 92.99551 115.62064 92.61741 114.56801C 92.229256 114.75141 91.8072 114.87199 91.34871 114.87199C 90.37269 114.87199 89.54741 114.37707 88.99848 113.656044C 88.46337 114.03539 87.84409 114.306725 87.136894 114.306725C 86.191025 114.306725 85.35319 113.894714 84.75275 113.25408C 84.20005 113.605804 83.58202 113.86205 82.878586 113.86205C 81.941505 113.86205 81.10367 113.482704 80.466805 112.89231C 79.90656 113.20886 79.29608 113.43747 78.60773 113.43747C 78.15803 113.43747 77.741 113.32191 77.34029 113.18122C 77.708336 113.3621 78.05502 113.57816 78.34646 113.85953C 78.86148 113.580666 79.42171 113.379684 80.048515 113.379684C 81.114975 113.379684 82.052055 113.85953 82.715294 114.59563C 83.22779 114.271545 83.80059 114.035385 84.45127 114.035385C 85.542854 114.035385 86.46486 114.59563 87.07157 115.40457C 87.569 115.04532 88.14933 114.78906 88.811325 114.78906C 90.11017 114.78906 91.19798 115.61309 91.631355 116.76119C 91.97553 116.60543 92.35113 116.507454 92.75435 116.507454C 94.27176 116.507454 95.50026 117.738464 95.50026 119.253365C 95.50026 119.81361 95.29174 120.30601 95.00409 120.74063C 95.21889 120.67782 95.43243 120.60497 95.66859 120.60497C 97.01517 120.60497 98.10675 121.697815 98.10675 123.044395C 98.10675 123.43379 97.99495 123.790535 97.83291 124.11714C 98.16076 123.91867 98.52378 123.772964 98.93454 123.772964C 100.13415 123.772964 101.10766 124.7452 101.10766 125.94609C 101.10766 127.14444 100.13415 128.11668 98.93454 128.11668C 97.73493 128.11668 96.76142 127.14445 96.76142 125.94609C 96.76142 125.62955 96.83553 125.3331 96.95738 125.06177C 96.57803 125.30797 96.15345 125.483826 95.66858 125.483826C 94.32075 125.483826 93.22916 124.391 93.22916 123.0444C 93.22916 122.59219 93.38492 122.19274 93.600975 121.82846C 93.32964 121.91639 93.05456 121.99929 92.75433 121.99929C 91.65898 121.99929 90.72945 121.3461 90.288536 120.41907C 89.845116 120.670296 89.35899 120.85621 88.81132 120.85621C 87.925735 120.85621 87.146935 120.46178 86.59173 119.85633C 86.0114 120.35627 85.27781 120.68789 84.45127 120.68789C 83.5971 120.68789 82.83462 120.3412 82.24549 119.81111C 81.62998 120.29347 80.89012 120.6276 80.04851 120.6276C 79.55987 120.6276 79.09761 120.524605 78.671776 120.34874C 79.075 120.5246 79.43424 120.77583 79.74828 121.07479C 80.316055 120.63765 80.99438 120.33367 81.76689 120.33367C 82.774315 120.33367 83.65235 120.79844 84.26786 121.49936C 84.808 121.024536 85.49887 120.71051 86.27517 120.71051C 87.49613 120.71051 88.53119 121.43656 89.0236 122.47161C 89.42305 122.248024 89.86019 122.084724 90.35134 122.084724C 91.88006 122.084724 93.11986 123.32327 93.11986 124.85073C 93.11986 125.20245 93.03947 125.53406 92.92013 125.843094C 93.08845 125.80543 93.24673 125.7401 93.427605 125.7401C 94.79302 125.7401 95.90093 126.84801 95.90093 128.21469C 95.90093 128.45084 95.82807 128.6669 95.766525 128.88295C 96.08433 128.70207 96.432274 128.57143 96.824196 128.57143C 98.03135 128.57143 99.00987 129.55122 99.00987 130.75961C 99.00987 131.9655 98.03134 132.9453 96.824196 132.9453C 95.6158 132.9453 94.63727 131.9655 94.63727 130.75961C 94.63727 130.58124 94.698814 130.42297 94.73902 130.25716C 94.352135 130.50586 93.92002 130.68675 93.42761 130.68675C 92.062195 130.68675 90.954285 129.57884 90.954285 128.21468C 90.954285 127.95089 91.0284 127.7072 91.10503 127.46854C 90.86008 127.53888 90.618904 127.61928 90.35135 127.61928C 89.3389 127.61928 88.49101 127.04648 88.00866 126.235016C 87.50872 126.58925 86.93341 126.84047 86.27519 126.84047C 85.46875 126.84047 84.746475 126.51387 84.1988 126.003876C 83.90361 126.31791 83.55189 126.56914 83.15495 126.750015C 83.349655 126.70981 83.53053 126.63194 83.7378 126.63194C 84.88088 126.63194 85.84057 127.28262 86.375694 128.20462C 86.830414 127.88556 87.35297 127.65694 87.94963 127.65694C 89.49091 127.65694 90.73951 128.90805 90.73951 130.44806C 90.73951 130.64653 90.66665 130.82239 90.62646 131.0083C 90.81237 130.96559 90.98823 130.89525 91.18795 130.89525C 92.56091 130.89525 93.6751 132.0107 93.6751 133.3849C 93.6751 133.508 93.622345 133.61353 93.60601 133.72908C 93.93512 133.53061 94.2994 133.3849 94.71267 133.3849C 95.91982 133.3849 96.898346 134.3647 96.898346 135.57059C 96.898346 136.77899 95.919815 137.75627 94.71267 137.75627C 93.50552 137.75627 92.52699 136.779 92.52699 135.57059C 92.52699 135.5103 92.555885 135.46255 92.56091 135.40227C 92.16146 135.6761 91.70674 135.87206 91.18795 135.87206C 89.81374 135.87206 88.69954 134.7566 88.69954 133.3849C 88.69954 133.27437 88.74853 133.18141 88.76235 133.0759C 88.501076 133.15628 88.23729 133.2392 87.94963 133.2392C 87.01758 133.2392 86.23375 132.75433 85.72752 132.0534C 85.184875 132.51567 84.5053 132.82468 83.7378 132.82468C 82.97281 132.82468 82.29576 132.51817 81.75562 132.05844C 81.622475 132.2343 81.499374 132.40765 81.333565 132.55588C 82.34099 132.59859 83.18762 133.12868 83.73279 133.90245C 84.22896 133.4829 84.84698 133.20154 85.546646 133.20154C 87.11681 133.20154 88.38928 134.47527 88.38928 136.04543C 88.38928 136.09065 88.36541 136.12833 88.3629 136.17355C 88.55634 136.12582 88.741 136.05548 88.94826 136.05548C 90.3275 136.05548 91.44671 137.17595 91.44671 138.55519C 91.44671 139.93443 90.32749 141.0524 88.94826 141.0524C 87.620514 141.0524 86.55909 140.0073 86.48121 138.70091C 86.18476 138.80391 85.87826 138.88933 85.54664 138.88933C 84.69498 138.88933 83.95512 138.49742 83.433815 137.90451C 82.863525 138.47731 82.07342 138.83405 81.20041 138.83405C 80.47436 138.83405 79.8375 138.54764 79.3049 138.13564C 79.22953 138.25873 79.15416 138.37682 79.06498 138.48987C 79.90785 138.6004 80.62761 139.0099 81.13635 139.64049C 81.661415 139.10538 82.388725 138.76872 83.19893 138.76872C 84.79799 138.76872 86.09432 140.06505 86.09432 141.66286C 86.09432 143.26318 84.79799 144.55951 83.19893 144.55951C 82.37616 144.55951 81.64258 144.2103 81.115 143.6576C 80.52462 144.3736 79.66542 144.85846 78.664276 144.85846zM80.95543 167.3232C 81.626205 167.78043 82.18644 168.37332 82.49294 169.13455C 82.59217 168.97125 82.690155 168.81047 82.810745 168.66476C 82.320854 168.06181 81.998024 167.32823 81.96663 166.49919C 81.68274 166.83835 81.34233 167.10464 80.95544 167.32323L80.95544 167.32323L80.95544 167.3232zM88.720856 168.25023C 89.11152 168.61702 89.42931 169.04913 89.65291 169.54405C 89.74335 169.35062 89.8853 169.19484 90.00463 169.0215C 89.56875 168.60698 89.27481 168.07689 89.08639 167.49153C 88.99595 167.76537 88.86908 168.00906 88.72085 168.25024L88.72085 168.25024L88.72085 168.25023zM96.07805 166.7705C 96.02404 167.26793 95.87958 167.72516 95.645935 168.1422C 96.33681 168.68484 96.80911 169.431 97.02014 170.31279C 97.129425 169.88821 97.30151 169.50887 97.54395 169.15965C 96.74002 168.6195 96.19612 167.77791 96.07804 166.77048L96.07804 166.77048L96.07804 166.7705zM87.96341 163.5799C 88.4935 164.02457 88.87662 164.59737 89.09142 165.27066C 89.30119 164.63254 89.665474 164.08739 90.16542 163.6603C 89.699394 163.10759 89.39415 162.42174 89.37657 161.64796C 89.16177 162.46947 88.66308 163.14026 87.963425 163.57991L87.963425 163.57991L87.9634 163.5799zM81.1853 160.23355C 79.9681 160.23355 78.94939 159.5452 78.37658 158.5654C 78.39165 158.70357 78.45697 158.82166 78.45697 158.96484C 78.45697 159.59793 78.2585 160.1632 77.97964 160.68576C 78.358986 160.55511 78.75091 160.44458 79.175476 160.44458C 81.17399 160.44458 82.77933 162.03485 82.84968 164.01703C 83.148636 163.6628 83.50413 163.3789 83.91363 163.16035C 83.32199 162.56494 82.9552 161.74594 82.9552 160.83902C 82.9552 160.31647 83.10217 159.84164 83.31948 159.402C 82.7404 159.90193 82.00933 160.23355 81.1853 160.23355zM79.06117 154.19405C 78.232124 154.19405 77.497284 153.85991 76.916954 153.35495C 76.64311 154.21918 76.06655 154.91257 75.29653 155.36478C 76.4371 155.54063 77.38172 156.20387 77.92939 157.1711C 77.92311 157.08568 77.8804 157.01283 77.8804 156.92741C 77.8804 155.68886 78.59137 154.65129 79.60005 154.08603C 79.417915 154.11618 79.2521 154.19406 79.06117 154.19406L79.06117 154.19406L79.06117 154.19405zM83.61341 130.08627C 82.853455 130.08627 82.1877 129.78983 81.624954 129.36525C 81.48426 129.50092 81.299614 129.5788 81.13883 129.69185C 81.99049 129.74712 82.76804 130.07874 83.335815 130.64651C 83.60966 130.35257 83.93374 130.11642 84.30179 129.9481C 84.071915 129.99583 83.85837 130.08627 83.61343 130.08627L83.61343 130.08627L83.6134 130.08627zM80.45925 123.34584C 80.17034 123.22023 79.93167 123.01924 79.68798 122.8258C 79.54981 122.921265 79.42042 123.02678 79.27094 123.10717C 79.68672 123.12978 80.09245 123.1951 80.45925 123.34584zM83.42499 109.319824C 83.98397 109.319824 84.506516 109.184166 84.98386 108.96559C 85.62826 109.664 86.53142 110.11621 87.55643 110.11621C 88.14555 110.11621 88.675644 109.93533 89.163025 109.68159C 89.75717 110.432755 90.636475 110.94526 91.669014 110.94526C 92.25688 110.94526 92.77818 110.74679 93.253006 110.472946C 93.77682 111.31456 94.66742 111.904945 95.73137 111.904945C 96.11952 111.904945 96.486305 111.81953 96.82546 111.68387C 97.106834 112.8772 98.12933 113.78162 99.40682 113.78162C 100.8049 113.78162 101.91658 112.70637 102.057274 111.34472C 102.38387 112.2416 103.22549 112.88977 104.23541 112.88977C 105.526726 112.88977 106.57434 111.84466 106.57434 110.55084C 106.57434 109.25953 105.52672 108.21443 104.23541 108.21443C 103.038315 108.21443 102.087425 109.12638 101.94924 110.28705C 101.60631 109.189186 100.617744 108.377716 99.40682 108.377716C 99.12796 108.377716 98.87422 108.45811 98.621735 108.53599C 98.41824 107.09395 97.229935 105.965935 95.73136 105.965935C 95.29799 105.965935 94.89226 106.06893 94.52044 106.23727C 93.98156 105.19468 92.92389 104.45858 91.66901 104.45858C 91.23816 104.45858 90.83117 104.55153 90.455574 104.70478C 89.826256 103.742584 88.79119 103.06929 87.55641 103.06929C 87.14942 103.06929 86.77509 103.17481 86.41081 103.30042C 85.71994 102.3759 84.66855 101.73779 83.42497 101.73779C 81.33099 101.73779 79.63269 103.43357 79.63269 105.52882C 79.63269 107.62154 81.33099 109.31984 83.42497 109.31984L83.42497 109.31984L83.424995 109.31982zM86.3945 102.18246C 86.84294 102.18246 87.25998 102.071915 87.65817 101.92872C 88.29253 102.76782 89.25221 103.34815 90.386505 103.34815C 90.85882 103.34815 91.3085 103.250175 91.71927 103.079346C 92.29081 103.95361 93.2304 104.56661 94.353386 104.56661C 94.82192 104.56661 95.260315 104.45356 95.661026 104.272675C 96.14213 105.23989 97.11564 105.92072 98.26877 105.92072C 98.5916 105.92072 98.8893 105.832794 99.17947 105.73732C 99.31387 107.09395 100.41927 108.16418 101.809814 108.16418C 102.995605 108.16418 103.96786 107.38286 104.32208 106.31515C 104.68385 107.146706 105.51038 107.73207 106.47635 107.73207C 107.77394 107.73207 108.82658 106.67943 108.82658 105.380585C 108.82658 104.08174 107.77393 103.0291 106.47635 103.0291C 105.48149 103.0291 104.63988 103.65214 104.29695 104.526405C 103.91132 103.52149 102.95163 102.800476 101.8098 102.800476C 101.59249 102.800476 101.39779 102.87585 101.19555 102.92358C 101.16289 101.330795 99.87158 100.04452 98.268745 100.04452C 97.934616 100.04452 97.626854 100.13245 97.327896 100.23545C 96.86941 99.027054 95.7213 98.16031 94.35336 98.16031C 94.03807 98.16031 93.75167 98.255775 93.46276 98.34119C 92.89247 97.203125 91.74562 96.40172 90.38648 96.40172C 90.08878 96.40172 89.82247 96.499695 89.54612 96.57255C 88.89419 95.482216 87.75487 94.71849 86.39447 94.71849C 84.33441 94.71849 82.66249 96.38915 82.66249 98.45173C 82.66249 100.51179 84.33441 102.18245 86.39447 102.18245L86.39447 102.18245L86.3945 102.18245zM89.36526 95.04761C 89.700645 95.04761 90.000854 94.939575 90.30987 94.856674C 90.904015 95.869125 91.95792 96.5826 93.21783 96.5826C 93.57079 96.5826 93.89111 96.48212 94.211426 96.38162C 94.72141 97.4418 95.7841 98.18543 97.03899 98.18543C 97.412056 98.18543 97.7575 98.09248 98.09038 97.9744C 98.48481 99.109955 99.534935 99.936485 100.806145 99.936485C 101.07873 99.936485 101.32368 99.85107 101.574905 99.78072C 101.572395 99.818405 101.55356 99.84856 101.55356 99.88372C 101.55356 101.3534 102.74312 102.54422 104.2128 102.54422C 105.23153 102.54422 106.08821 101.95132 106.53414 101.10971C 106.888374 101.96891 107.72998 102.57436 108.71605 102.57436C 110.02118 102.57436 111.0801 101.51669 111.0801 100.21031C 111.0801 98.90644 110.02118 97.84626 108.71605 97.84626C 107.84304 97.84626 107.11196 98.34369 106.70246 99.04713C 106.34823 97.994484 105.38477 97.22572 104.2128 97.22572C 104.01307 97.22572 103.83722 97.29607 103.65005 97.338776C 103.662605 97.23325 103.71286 97.140305 103.71286 97.02976C 103.71286 95.42442 102.4115 94.12306 100.80616 94.12306C 100.53735 94.12306 100.29617 94.20848 100.04997 94.27631C 99.705795 92.90211 98.520004 91.86202 97.03901 91.86202C 96.814156 91.86202 96.61569 91.94492 96.40341 91.99015C 95.92231 90.68126 94.69255 89.73664 93.21785 89.73664C 93.02817 89.73664 92.86362 89.81452 92.68274 89.84467C 92.09989 88.58602 90.84376 87.701706 89.36528 87.701706C 87.33788 87.701706 85.69359 89.344734 85.69359 91.37465C 85.69359 93.40205 87.33787 95.04759 89.36528 95.04759L89.36528 95.04759L89.36526 95.047615zM92.33601 87.91024C 92.55709 87.91024 92.74928 87.82231 92.96031 87.78463C 93.477844 88.97796 94.66237 89.81706 96.04789 89.81706C 96.31545 89.81706 96.55286 89.72411 96.80157 89.66381C 97.21735 90.89985 98.34913 91.80427 99.724594 91.80427C 100.02732 91.80427 100.302414 91.71132 100.580025 91.63092C 100.84632 92.94484 101.95172 93.95226 103.34226 93.95226C 103.60228 93.95226 103.83592 93.86936 104.07584 93.80405C 104.04444 93.96735 103.97787 94.11808 103.97787 94.28892C 103.97787 95.74353 105.15864 96.92681 106.61576 96.92681C 107.505104 96.92681 108.25376 96.45702 108.731094 95.78121C 109.04639 96.72582 109.9081 97.4167 110.95696 97.4167C 112.26837 97.4167 113.33231 96.3515 113.33231 95.04009C 113.33231 93.72868 112.268364 92.66348 110.95696 92.66348C 110.19574 92.66348 109.548836 93.04535 109.11421 93.60056C 108.806465 92.485115 107.829185 91.64852 106.61576 91.64852C 106.42608 91.64852 106.25902 91.718864 106.07939 91.75655C 106.135925 91.53297 106.21756 91.3169 106.21756 91.07572C 106.21756 89.48796 104.93128 88.20168 103.34226 88.20168C 103.14002 88.20168 102.961655 88.277054 102.77072 88.317245C 102.57979 86.774704 101.317375 85.56631 99.724594 85.56631C 99.56004 85.56631 99.41936 85.63414 99.261086 85.659256C 98.90057 84.187065 97.63313 83.07162 96.04788 83.07162C 95.9298 83.07162 95.830574 83.126884 95.71626 83.13945C 95.22888 81.72002 93.92124 80.68496 92.336006 80.68496C 90.34126 80.68496 88.72336 82.30035 88.72336 84.29761C 88.72336 86.29235 90.341255 87.910255 92.336006 87.910255L92.336006 87.910255L92.336006 87.91023zM95.30677 80.77287C 95.46379 80.77287 95.59819 80.70253 95.74893 80.682434C 96.16597 82.04157 97.38316 83.048996 98.87922 83.048996C 99.08146 83.048996 99.25606 82.968605 99.44951 82.93343C 99.73214 84.34281 100.91793 85.425606 102.408966 85.425606C 102.64387 85.425606 102.85113 85.342705 103.069695 85.29246C 103.16264 86.779724 104.3698 87.965515 105.87968 87.965515C 106.12714 87.965515 106.34821 87.885124 106.576836 87.82482C 106.48137 88.09615 106.40349 88.38003 106.40349 88.68402C 106.40349 90.12858 107.57547 91.30181 109.02002 91.30181C 110.04628 91.30181 110.91427 90.69635 111.34262 89.83464C 111.328804 89.93513 111.28233 90.02557 111.28233 90.13109C 111.28233 91.45003 112.3513 92.517746 113.67025 92.517746C 114.9892 92.517746 116.05817 91.45003 116.05817 90.13109C 116.05817 88.81215 114.9892 87.74192 113.67025 87.74192C 112.7382 87.74192 111.95186 88.292114 111.55868 89.07091C 111.57878 88.93776 111.63656 88.81968 111.63656 88.68402C 111.63656 87.23946 110.465836 86.06874 109.02003 86.06874C 108.8404 86.06874 108.68213 86.13657 108.511284 86.17174C 108.64192 85.84514 108.72357 85.49343 108.72357 85.121605C 108.72357 83.55144 107.44985 82.27772 105.879684 82.27772C 105.74026 82.27772 105.61967 82.338005 105.48525 82.35811C 105.48525 82.35309 105.48776 82.35057 105.48776 82.34555C 105.48776 80.64474 104.10978 79.26802 102.40897 79.26802C 102.30598 79.26802 102.21929 79.31575 102.12006 79.3258C 101.9128 77.69031 100.57124 76.40654 98.879234 76.40654C 98.81642 76.40654 98.76492 76.4392 98.70338 76.44171C 98.339096 74.86652 96.992516 73.66565 95.306786 73.66565C 93.343445 73.66565 91.753174 75.25843 91.753174 77.22052C 91.753174 79.18261 93.343445 80.77287 95.306786 80.77287L95.306786 80.77287L95.30676 80.77287zM98.33029 73.66063C 98.46972 73.66063 98.58905 73.59782 98.723465 73.58024C 98.96339 75.16046 100.26601 76.39147 101.912796 76.39147C 102.12257 76.39147 102.30597 76.30857 102.5057 76.27088C 102.5258 77.94657 103.88243 79.30068 105.56188 79.30068C 105.90229 79.30068 106.21507 79.21024 106.52157 79.10724C 106.4864 79.28561 106.413536 79.451416 106.413536 79.64235C 106.413536 81.21754 107.69228 82.49629 109.26748 82.49629C 109.738525 82.49629 110.16436 82.35309 110.55628 82.152115C 110.18949 82.606834 109.93826 83.16205 109.93826 83.790115C 109.93826 85.25477 111.124054 86.44057 112.586205 86.44057C 114.04961 86.44057 115.2354 85.254776 115.2354 83.790115C 115.2354 82.32797 114.04961 81.14217 112.586205 81.14217C 112.171684 81.14217 111.79233 81.255226 111.44312 81.42606C 111.8476 80.933655 112.12143 80.3282 112.12143 79.64236C 112.12143 78.06717 110.84394 76.788414 109.26749 76.788414C 108.988625 76.788414 108.7374 76.871315 108.48366 76.946686C 108.541435 76.71304 108.62686 76.48694 108.62686 76.23572C 108.62686 74.54245 107.2539 73.170746 105.56189 73.170746C 105.42246 73.170746 105.30313 73.23103 105.16872 73.25114C 105.169975 73.19838 105.19761 73.15819 105.19761 73.10542C 105.19761 71.291565 103.72667 69.821884 101.91281 69.821884C 101.8588 69.821884 101.814835 69.84952 101.76082 69.852036C 101.59501 68.07838 100.14794 66.67149 98.33031 66.67149C 96.40088 66.67149 94.83574 68.23664 94.83574 70.16606C 94.83574 72.09548 96.40089 73.66063 98.33031 73.66063L98.33031 73.66063L98.330284 73.66063zM102.69285 67.31463C 102.92649 67.31463 103.1325 67.2267 103.35358 67.18148C 103.34102 67.29453 103.286995 67.39251 103.286995 67.50808C 103.286995 69.30938 104.74789 70.77152 106.5517 70.77152C 106.90719 70.77152 107.23253 70.673546 107.5541 70.57054C 107.46743 70.85443 107.37573 71.13831 107.37573 71.449844C 107.37573 73.15568 108.757484 74.53742 110.46206 74.53742C 111.15419 74.53742 111.76216 74.26609 112.277176 73.88172C 111.81743 74.39674 111.51722 75.05998 111.51722 75.80612C 111.51722 77.42151 112.82611 78.730415 114.44151 78.730415C 116.056915 78.730415 117.36581 77.421524 117.36581 75.80612C 117.36581 74.19072 116.056915 72.88183 114.44151 72.88183C 113.79334 72.88183 113.22557 73.13306 112.7407 73.4898C 113.22934 72.94464 113.5484 72.241196 113.5484 71.44983C 113.5484 69.746506 112.16665 68.36476 110.462074 68.36476C 110.15935 68.36476 109.885506 68.4552 109.60915 68.53559C 109.719696 68.20899 109.816414 67.87235 109.816414 67.50807C 109.816414 65.70426 108.35427 64.24212 106.55171 64.24212C 106.36831 64.24212 106.20878 64.31749 106.03293 64.34764C 106.05554 64.18685 106.12714 64.04617 106.12714 63.88036C 106.12714 61.98359 104.58962 60.44608 102.692856 60.44608C 100.79609 60.44608 99.257324 61.98359 99.257324 63.88036C 99.257324 65.77713 100.7961 67.31464 102.692856 67.31464L102.692856 67.31464L102.692856 67.31461zM108.64694 62.453377C 109.03257 62.453377 109.38932 62.352886 109.73475 62.234806C 109.543816 62.646816 109.420715 63.099026 109.420715 63.583897C 109.420715 65.377655 110.87406 66.82976 112.66657 66.82976C 114.45908 66.82976 115.91117 65.37767 115.91117 63.583897C 115.91117 61.79265 114.45908 60.338036 112.66657 60.338036C 112.30732 60.338036 111.97695 60.436016 111.65412 60.541527C 111.87394 60.094345 112.02217 59.609478 112.02217 59.076878C 112.02217 57.21277 110.51104 55.702896 108.646935 55.702896C 106.78283 55.702896 105.2717 57.212776 105.2717 59.076878C 105.2717 60.94098 106.78283 62.45337 108.646935 62.45337zM115.70266 59.448696C 117.53411 59.448696 119.01886 57.963947 119.01886 56.132496C 119.01886 54.301044 117.53411 52.816296 115.70266 52.816296C 113.87121 52.816296 112.38646 54.301044 112.38646 56.132496C 112.38646 57.963947 113.87121 59.448696 115.70266 59.448696zM123.30731 58.541767C 125.106094 58.541767 126.56447 57.08465 126.56447 55.28586C 126.56447 53.48707 125.1061 52.02995 123.30731 52.02995C 121.50852 52.02995 120.0514 53.48707 120.0514 55.28586C 120.0514 57.08465 121.50852 58.541767 123.30731 58.541767zM130.84163 59.810467C 132.6065 59.810467 134.0385 58.378468 134.0385 56.612347C 134.0385 54.846226 132.60649 53.414227 130.84163 53.414227C 129.0755 53.414227 127.64351 54.846226 127.64351 56.612347C 127.64351 58.378468 129.07552 59.810467 130.84163 59.810467zM140.40836 66.066025C 140.10814 65.973076 139.80415 65.8776 139.47128 65.8776C 137.72275 65.8776 136.30457 67.297035 136.30457 69.04558C 136.30457 69.48272 136.39375 69.89975 136.55453 70.279106C 136.32968 70.22886 136.11865 70.14345 135.87874 70.14345C 134.12643 70.14345 132.70573 71.56288 132.70573 73.316444C 132.70573 73.97968 132.9557 74.56001 133.30365 75.0675C 133.10016 75.0273 132.91048 74.9444 132.69443 74.9444C 130.96347 74.9444 129.56036 76.348755 129.56036 78.07972C 129.56036 78.86355 129.8769 79.55945 130.35298 80.10964C 130.08417 80.02925 129.81535 79.94132 129.52016 79.94132C 127.86206 79.94132 126.51799 81.28539 126.51799 82.94349C 126.51799 84.601585 127.86206 85.945656 129.52016 85.945656C 131.17825 85.945656 132.52107 84.601585 132.52107 82.94349C 132.52107 82.20488 132.22462 81.55169 131.78246 81.02914C 132.0764 81.119576 132.37033 81.21254 132.69441 81.21254C 134.42412 81.21254 135.82721 79.80818 135.82721 78.07974C 135.82721 77.42906 135.58226 76.85878 135.24435 76.35883C 135.45538 76.40405 135.65385 76.48696 135.87871 76.48696C 137.62976 76.48696 139.05045 75.06753 139.05045 73.316475C 139.05045 72.87682 138.96 72.457275 138.7967 72.07542C 139.02156 72.12566 139.23259 72.211075 139.47125 72.211075C 141.21979 72.211075 142.63797 70.79415 142.63797 69.045616C 142.63797 68.70898 142.54376 68.40247 142.44704 68.09849C 142.72589 68.18139 143.00351 68.271835 143.31001 68.271835C 145.01082 68.271835 146.38881 66.8951 146.38881 65.194305C 146.38881 63.493507 145.01083 62.116776 143.31001 62.116776C 141.61046 62.116776 140.23248 63.493507 140.23248 65.194305C 140.23248 65.50332 140.32419 65.78468 140.40834 66.06606L140.40834 66.06606L140.40836 66.066025zM171.6648 135.35199C 171.6648 136.70358 172.76015 137.79893 174.11049 137.79893C 175.46083 137.79893 176.55618 136.70358 176.55618 135.35199C 176.55618 134.0029 175.46083 132.90755 174.11049 132.90755C 172.76015 132.90755 171.6648 134.0029 171.6648 135.35199zM174.74232 142.42152C 174.74232 143.72037 175.79622 144.77553 177.09633 144.77553C 178.39644 144.77553 179.45033 143.72038 179.45033 142.42152C 179.45033 141.12016 178.39644 140.06752 177.09633 140.06752C 175.79622 140.06752 174.74232 141.12016 174.74232 142.42152zM177.81985 149.48854C 177.81985 150.73965 178.8323 151.7521 180.08215 151.7521C 181.33075 151.7521 182.3432 150.73965 182.3432 149.48854C 182.3432 148.23994 181.33075 147.2275 180.08215 147.2275C 178.83229 147.2275 177.81985 148.23994 177.81985 149.48854zM180.74791 156.61838C 180.74791 157.81673 181.72015 158.78897 182.91727 158.78897C 184.11562 158.78897 185.08786 157.81673 185.08786 156.61838C 185.08786 155.42003 184.11562 154.45029 182.91727 154.45029C 181.72017 154.45029 180.74791 155.42003 180.74791 156.61838zM183.15591 162.14789C 182.00906 162.14789 181.07826 163.07742 181.07826 164.22554C 181.07826 165.37366 182.00906 166.30319 183.15591 166.30319C 184.30276 166.30319 185.23357 165.37366 185.23357 164.22554C 185.23357 163.07742 184.30276 162.14789 183.15591 162.14789zM179.9917 169.16216C 178.8951 169.16216 178.00575 170.0515 178.00575 171.14685C 178.00575 172.2447 178.8951 173.13406 179.9917 173.13406C 181.0883 173.13406 181.9764 172.24472 181.9764 171.14685C 181.9764 170.0515 181.0883 169.16216 179.9917 169.16216zM174.63177 174.57108C 173.58667 174.57108 172.73877 175.42023 172.73877 176.46533C 172.73877 177.51044 173.58665 178.35707 174.63177 178.35707C 175.67813 178.35707 176.52478 177.51044 176.52478 176.46533C 176.52478 175.42023 175.67815 174.57108 174.63177 174.57108zM168.586 176.14879C 167.36533 176.14879 166.3777 177.13931 166.3777 178.35999C 166.3777 179.57483 167.36531 180.56535 168.58598 180.56535C 169.80666 180.56535 170.79427 179.57483 170.79427 178.35999C 170.79427 177.13931 169.80666 176.14879 168.58598 176.14879L168.58598 176.14879L168.586 176.14879zM116.46513 61.69719C 116.46513 63.47839 117.90969 64.92044 119.690895 64.92044C 121.4721 64.92044 122.91666 63.4784 122.91666 61.69719C 122.91666 59.91348 121.4721 58.471428 119.690895 58.471428C 117.90969 58.471428 116.46513 59.913467 116.46513 61.69719zM123.744446 62.03132C 123.744446 63.802467 125.18021 65.23698 126.9501 65.23698C 128.72125 65.23698 130.15576 63.802467 130.15576 62.031315C 130.15576 60.260162 128.72125 58.825653 126.9501 58.825653C 125.18021 58.825653 123.744446 60.260162 123.744446 62.031322zM133.75836 61.375618C 131.9985 61.375618 130.57155 62.80259 130.57155 64.56118C 130.57155 65.36762 130.89688 66.08613 131.39182 66.64637C 131.0112 66.48558 130.59416 66.39263 130.15453 66.39263C 128.41478 66.39263 127.004135 67.80201 127.004135 69.54302C 127.004135 71.28151 128.41478 72.69341 130.15453 72.69341C 131.89427 72.69341 133.30492 71.28151 133.30492 69.54302C 133.30492 68.746635 132.98335 68.03817 132.49597 67.48547C 132.88412 67.65128 133.30869 67.74926 133.75839 67.74926C 135.51825 67.74926 136.9452 66.32229 136.9452 64.56119C 136.9452 63.905487 136.699 63.330177 136.35985 62.825207C 136.76683 63.018646 137.2115 63.14678 137.69261 63.14678C 139.42609 63.14678 140.83044 61.739906 140.83044 60.00895C 140.83044 58.27548 139.42609 56.87112 137.69261 56.87112C 135.95914 56.87112 134.55478 58.275482 134.55478 60.00895C 134.55478 60.65209 134.7947 61.21484 135.12631 61.71227C 134.70802 61.511288 134.25455 61.37563 133.75838 61.37563L133.75838 61.37563L133.75836 61.37563zM171.80673 139.74344C 170.46266 139.74344 169.37234 140.83377 169.37234 142.17783C 169.37234 143.52188 170.46268 144.61221 171.80673 144.61221C 173.15205 144.61221 174.24239 143.52188 174.24239 142.17783C 174.24239 140.83377 173.15205 139.74344 171.80673 139.74344zM176.96191 148.89314C 176.96191 147.60686 175.91933 146.56427 174.63179 146.56427C 173.34425 146.56427 172.30167 147.60686 172.30167 148.89314C 172.30167 150.18195 173.34425 151.22453 174.63179 151.22453C 175.91933 151.22453 176.96191 150.18195 176.96191 148.89314zM179.68271 155.61096C 179.68271 154.37996 178.68533 153.38257 177.45558 153.38257C 176.22708 153.38257 175.2297 154.37994 175.2297 155.61096C 175.2297 156.83946 176.22708 157.83684 177.45558 157.83684C 178.68535 157.83684 179.68271 156.83946 179.68271 155.61096zM179.2192 164.76819C 180.39117 164.76819 181.3408 163.81854 181.3408 162.64783C 181.3408 161.4746 180.39116 160.52496 179.2192 160.52496C 178.04723 160.52496 177.09758 161.47461 177.09758 162.64783C 177.09758 163.81854 178.04723 164.76819 179.2192 164.76819zM119.78763 68.5582C 119.78763 66.842316 118.39583 65.450516 116.67995 65.450516C 114.96281 65.450516 113.572266 66.842316 113.572266 68.5582C 113.572266 70.27408 114.96281 71.66588 116.67995 71.66588C 118.39583 71.66588 119.78763 70.27408 119.78763 68.5582zM123.50202 64.76717C 121.77358 64.76717 120.37298 66.16902 120.37298 67.89746C 120.37298 69.62339 121.77357 71.02524 123.50202 71.02524C 125.23048 71.02524 126.631065 69.62339 126.631065 67.89746C 126.631065 66.16902 125.23048 64.76717 123.50202 64.76717zM166.92163 148.58412C 166.92163 149.90558 167.99187 150.9758 169.31206 150.9758C 170.63225 150.9758 171.70248 149.90556 171.70248 148.58412C 171.70248 147.26518 170.63225 146.19495 169.31206 146.19495C 167.99187 146.19495 166.92163 147.26518 166.92163 148.58412zM169.69392 154.93513C 169.69392 156.19127 170.71265 157.20874 171.97005 157.20874C 173.22618 157.20874 174.2449 156.19127 174.2449 154.93513C 174.2449 153.67648 173.22618 152.65901 171.97005 152.65901C 170.71266 152.65901 169.69392 153.67648 169.69392 154.93513zM176.5788 161.36404C 176.5788 160.17072 175.61157 159.20349 174.41824 159.20349C 173.22491 159.20349 172.25769 160.17072 172.25769 161.36404C 172.25769 162.55737 173.22491 163.5246 174.41824 163.5246C 175.61157 163.5246 176.5788 162.55737 176.5788 161.36404zM176.46324 166.31322C 175.33397 166.31322 174.41826 167.22769 174.41826 168.3582C 174.41826 169.4862 175.33398 170.40318 176.46324 170.40318C 177.59377 170.40318 178.50949 169.4862 178.50949 168.3582C 178.50949 167.22768 177.59377 166.31322 176.46324 166.31322zM124.30344 161.85645C 125.51685 161.85645 126.50417 160.87163 126.50417 159.6557C 126.50417 158.43977 125.51685 157.45496 124.30344 157.45496C 123.087494 157.45496 122.1027 158.43977 122.1027 159.6557C 122.1027 160.87163 123.08752 161.85645 124.30344 161.85645zM118.76137 162.45186C 120.1381 162.45186 121.25354 161.33641 121.25354 159.95969C 121.25354 158.58296 120.13809 157.46751 118.76137 157.46751C 117.385895 157.46751 116.269196 158.58296 116.269196 159.95969C 116.269196 161.33641 117.3859 162.45186 118.76137 162.45186zM120.656876 77.16272C 122.3112 77.16272 123.651505 75.82117 123.651505 74.16558C 123.651505 72.5125 122.3112 71.17095 120.656876 71.17095C 119.00255 71.17095 117.660995 72.512505 117.660995 74.16558C 117.660995 75.82117 119.00255 77.16272 120.656876 77.16272zM130.12814 74.95946C 130.12814 73.26619 128.75519 71.891975 127.06192 71.891975C 125.36865 71.891975 123.9957 73.26618 123.9957 74.95946C 123.9957 76.65273 125.36866 78.02443 127.06192 78.02443C 128.75519 78.02443 130.12814 76.65273 130.12814 74.95946zM164.19455 146.2879C 162.84169 146.2879 161.74384 147.38326 161.74384 148.73737C 161.74384 150.09148 162.84169 151.18683 164.19455 151.18683C 165.54741 151.18683 166.64526 150.09148 166.64526 148.73737C 166.64526 147.38326 165.54741 146.2879 164.19455 146.2879zM164.35785 154.70905C 164.35785 155.99281 165.39793 157.0329 166.6817 157.0329C 167.96547 157.0329 169.00555 155.99281 169.00555 154.70905C 169.00555 153.42528 167.96547 152.3852 166.6817 152.3852C 165.39793 152.3852 164.35785 153.42528 164.35785 154.70905zM171.3671 160.68575C 171.3671 159.47232 170.38354 158.4875 169.17012 158.4875C 167.9567 158.4875 166.97314 159.47232 166.97314 160.68575C 166.97314 161.89917 167.9567 162.88399 169.17012 162.88399C 170.38354 162.88399 171.3671 161.89917 171.3671 160.68575zM172.25769 168.84059C 173.40202 168.84059 174.32906 167.91356 174.32906 166.77048C 174.32906 165.62488 173.40202 164.69786 172.25769 164.69786C 171.11461 164.69786 170.18633 165.6249 170.18633 166.77048C 170.18633 167.91356 171.11461 168.84059 172.25769 168.84059zM174.68329 172.62534C 174.68329 171.55008 173.81279 170.67833 172.73878 170.67833C 171.66478 170.67833 170.79428 171.5501 170.79428 172.62534C 170.79428 173.69807 171.66478 174.56984 172.73878 174.56984C 173.81279 174.56984 174.68329 173.69807 174.68329 172.62534zM123.12392 154.94772C 123.12392 153.66144 122.08006 152.61885 120.793785 152.61885C 119.50751 152.61885 118.46365 153.66144 118.46365 154.94772C 118.46365 156.23401 119.50751 157.2766 120.793785 157.2766C 122.08006 157.2766 123.12392 156.23401 123.12392 154.94772zM89.03238 158.2388C 90.64149 158.2388 91.94662 156.93494 91.94662 155.32455C 91.94662 153.7167 90.64149 152.41031 89.03238 152.41031C 87.42327 152.41031 86.11814 153.71669 86.11814 155.32455C 86.11814 156.93492 87.42327 158.2388 89.03238 158.2388zM88.17067 150.66933C 88.17067 149.05394 86.86052 147.74252 85.243866 147.74252C 83.62721 147.74252 82.31582 149.05394 82.31582 150.66933C 82.31582 152.28723 83.62723 153.59613 85.243866 153.59613C 86.860504 153.59613 88.17067 152.28725 88.17067 150.66933zM115.11102 80.923615C 115.11102 82.45107 116.34957 83.69213 117.878296 83.69213C 119.405754 83.69213 120.6443 82.45107 120.6443 80.923615C 120.6443 79.39616 119.405754 78.15761 117.878296 78.15761C 116.34958 78.15761 115.11102 79.39616 115.11102 80.923615zM121.05254 80.61209C 121.05254 82.20487 122.34386 83.49618 123.93663 83.49618C 125.5294 83.49618 126.82072 82.204865 126.82072 80.61209C 126.82072 79.01932 125.5294 77.728004 123.93663 77.728004C 122.34386 77.728004 121.05254 79.01932 121.05254 80.61209zM159.22401 154.94772C 159.22401 156.2566 160.28546 157.31932 161.59561 157.31932C 162.9045 157.31932 163.96721 156.25664 163.96721 154.94772C 163.96721 153.6363 162.90453 152.57613 161.59561 152.57613C 160.28546 152.57613 159.22401 153.6363 159.22401 154.94772zM166.15915 160.57271C 166.15915 159.33917 165.15927 158.3393 163.92574 158.3393C 162.6922 158.3393 161.69232 159.33917 161.69232 160.57271C 161.69232 161.80624 162.6922 162.80612 163.92574 162.80612C 165.15927 162.80612 166.15915 161.80624 166.15915 160.57271zM167.6326 163.89392C 166.47694 163.89392 165.53735 164.831 165.53735 165.98917C 165.53735 167.14482 166.47694 168.08441 167.6326 168.08441C 168.79076 168.08441 169.72784 167.14482 169.72784 165.98917C 169.72784 164.83101 168.79077 163.89392 167.6326 163.89392zM168.28265 169.1923C 167.20238 169.1923 166.32559 170.06657 166.32559 171.14685C 166.32559 172.22713 167.20238 173.10641 168.28265 173.10641C 169.36293 173.10641 170.23845 172.22711 170.23845 171.14685C 170.23845 170.06659 169.36292 169.1923 168.28265 169.1923zM128.74513 156.14859C 128.74513 155.07333 127.87336 154.20158 126.79813 154.20158C 125.72037 154.20158 124.84861 155.07335 124.84861 156.14859C 124.84861 157.22383 125.72038 158.0956 126.79813 158.0956C 127.87338 158.0956 128.74513 157.22383 128.74513 156.14859zM122.22326 151.54108C 122.22326 152.6917 123.15531 153.62123 124.303406 153.62123C 125.4515 153.62123 126.38355 152.6917 126.38355 151.54108C 126.38355 150.39046 125.4515 149.46092 124.303406 149.46092C 123.15531 149.46092 122.22326 150.39046 122.22326 151.54108zM116.8784 154.20158C 118.099365 154.20158 119.0892 153.20923 119.0892 151.98828C 119.0892 150.76733 118.099365 149.77748 116.8784 149.77748C 115.65618 149.77748 114.66634 150.76732 114.66634 151.98828C 114.66634 153.20924 115.65618 154.20158 116.8784 154.20158zM111.24086 154.2443C 112.53594 154.2443 113.58481 153.19417 113.58481 151.90034C 113.58481 150.60652 112.53594 149.5564 111.24086 149.5564C 109.94704 149.5564 108.89691 150.60652 108.89691 151.90034C 108.89691 153.19417 109.947044 154.2443 111.24086 154.2443zM94.42748 153.67653C 95.81677 153.67653 96.94352 152.54852 96.94352 151.15923C 96.94352 149.76993 95.81677 148.64192 94.42748 148.64192C 93.03694 148.64192 91.91018 149.76993 91.91018 151.15923C 91.91018 152.54852 93.03693 153.67653 94.42748 153.67653zM93.236664 147.07678C 93.236664 145.69252 92.11367 144.56953 90.729416 144.56953C 89.34516 144.56953 88.22217 145.69252 88.22217 147.07678C 88.22217 148.46104 89.34516 149.58403 90.729416 149.58403C 92.11367 149.58403 93.236664 148.46104 93.236664 147.07678zM104.366035 115.72362C 104.366035 114.41221 103.304596 113.35203 101.995705 113.35203C 100.685555 113.35203 99.624115 114.41221 99.624115 115.72362C 99.624115 117.03251 100.685555 118.09269 101.995705 118.09269C 103.304596 118.09269 104.366035 117.03251 104.366035 115.72362zM118.36317 89.67387C 119.761246 89.67387 120.89554 88.54083 120.89554 87.141495C 120.89554 85.744675 119.761246 84.60912 118.36317 84.60912C 116.96509 84.60912 115.830795 85.744675 115.830795 87.141495C 115.830795 88.54083 116.96509 89.67387 118.36317 89.67387zM123.93413 84.32021C 122.445595 84.32021 121.239716 85.5261 121.239716 87.013374C 121.239716 88.50315 122.4456 89.709045 123.93413 89.709045C 125.42265 89.709045 126.62854 88.50316 126.62854 87.013374C 126.62854 85.52611 125.42265 84.32021 123.93413 84.32021zM157.32474 154.74173C 155.997 154.74173 154.9205 155.81699 154.9205 157.14597C 154.9205 158.47244 155.99701 159.5502 157.32474 159.5502C 158.65247 159.5502 159.72897 158.47244 159.72897 157.14597C 159.72897 155.81697 158.65247 154.74173 157.32474 154.74173zM159.47021 164.61246C 160.71756 164.61246 161.7275 163.60252 161.7275 162.35643C 161.7275 161.10783 160.71756 160.0979 159.47021 160.0979C 158.22412 160.0979 157.21419 161.10783 157.21419 162.35643C 157.21419 163.60252 158.22412 164.61246 159.47021 164.61246zM165.03867 167.19005C 165.03867 166.02435 164.09406 165.07974 162.92836 165.07974C 161.76392 165.07974 160.8193 166.02435 160.8193 167.19005C 160.8193 168.35574 161.76392 169.30035 162.92836 169.30035C 164.09406 169.30035 165.03867 168.35574 165.03867 167.19005zM163.92447 171.14688C 162.84167 171.14688 161.96239 172.02618 161.96239 173.11148C 161.96239 174.19678 162.84169 175.07608 163.92447 175.07608C 165.00977 175.07608 165.88907 174.19678 165.88907 173.11148C 165.88907 172.02618 165.00977 171.14688 163.92447 171.14688zM121.10153 146.12967C 119.984825 146.12967 119.079155 147.0366 119.079155 148.15205C 119.079155 149.27002 119.984825 150.17444 121.10153 150.17444C 122.21824 150.17444 123.12391 149.27002 123.12391 148.15205C 123.12391 147.0366 122.21824 146.12967 121.10153 146.12967zM115.95137 149.23483C 117.10702 149.23483 118.04409 148.29776 118.04409 147.14212C 118.04409 145.98396 117.10701 145.04688 115.95137 145.04688C 114.79447 145.04688 113.85739 145.98395 113.85739 147.14212C 113.85739 148.29778 114.79447 149.23483 115.95137 149.23483zM110.67685 149.24489C 111.87144 149.24489 112.84117 148.27766 112.84117 147.08182C 112.84117 145.88597 111.87143 144.91624 110.67685 144.91624C 109.48101 144.91624 108.51253 145.88599 108.51253 147.08182C 108.51253 148.27765 109.48101 149.24489 110.67685 149.24489zM105.41615 149.28256C 106.62204 149.28256 107.60057 148.3053 107.60057 147.0994C 107.60057 145.8935 106.62204 144.91371 105.41615 144.91371C 104.209 144.91371 103.23048 145.89351 103.23048 147.0994C 103.23048 148.30528 104.20901 149.28256 105.41615 149.28256zM100.16676 149.13936C 101.37392 149.13936 102.35244 148.1621 102.35244 146.95367C 102.35244 145.74779 101.37391 144.77051 100.16676 144.77051C 98.95962 144.77051 97.982346 145.74777 97.982346 146.95367C 97.982346 148.16208 98.95962 149.13936 100.16676 149.13936zM98.478516 143.67265C 98.478516 142.46425 97.499985 141.48697 96.29284 141.48697C 95.08569 141.48697 94.10716 142.46423 94.10716 143.67265C 94.10716 144.87854 95.08569 145.85834 96.29284 145.85834C 97.499985 145.85834 98.478516 144.87854 98.478516 143.67265zM105.002884 121.45412C 106.1711 121.45412 107.11948 120.50699 107.11948 119.33878C 107.11948 118.16806 106.1711 117.22093 105.002884 117.22093C 103.83343 117.22093 102.88629 118.16806 102.88629 119.33878C 102.88629 120.506996 103.83342 121.45412 105.002884 121.45412zM105.0255 114.52527C 105.0255 115.6784 105.96007 116.61297 107.1132 116.61297C 108.26633 116.61297 109.20215 115.6784 109.20215 114.52527C 109.20215 113.37214 108.26633 112.43757 107.1132 112.43757C 105.96007 112.43757 105.0255 113.37214 105.0255 114.52527zM107.14083 109.71176C 107.14083 110.86238 108.07288 111.79443 109.22476 111.79443C 110.37538 111.79443 111.30869 110.86238 111.30869 109.71176C 111.30869 108.56114 110.37538 107.62657 109.22476 107.62657C 108.07288 107.62657 107.14083 108.56114 107.14083 109.71176zM109.2235 104.898254C 109.2235 106.06394 110.16937 107.00857 111.335075 107.00857C 112.50078 107.00857 113.44665 106.06396 113.44665 104.898254C 113.44665 103.73004 112.50078 102.78543 111.335075 102.78543C 110.16937 102.78543 109.2235 103.73004 109.2235 104.898254zM111.307434 100.08475C 111.307434 101.26552 112.26462 102.22269 113.44663 102.22269C 114.6274 102.22269 115.58457 101.2655 115.58457 100.08475C 115.58457 98.90147 114.627396 97.94429 113.44663 97.94429C 112.26461 97.94429 111.307434 98.901474 111.307434 100.08475zM113.67274 95.41444C 113.67274 96.610275 114.64248 97.58002 115.83958 97.58002C 117.035416 97.58002 118.00516 96.610275 118.00516 95.41444C 118.00516 94.2186 117.035416 93.248856 115.83958 93.248856C 114.64248 93.248856 113.67274 94.2186 113.67274 95.41444zM122.64909 93.02023C 122.64909 91.77164 121.6379 90.7617 120.389305 90.7617C 119.14071 90.7617 118.12952 91.77164 118.12952 93.02023C 118.12952 94.26883 119.14071 95.28128 120.389305 95.28128C 121.6379 95.28128 122.64909 94.26883 122.64909 93.02023zM127.82814 94.361786C 127.82814 93.00014 126.724 91.89474 125.361084 91.89474C 123.99817 91.89474 122.89403 93.00014 122.89403 94.361786C 122.89403 95.725945 123.99817 96.828835 125.361084 96.828835C 126.724 96.828835 127.82814 95.725945 127.82814 94.361786zM157.40512 170.50374C 157.40512 171.67445 158.35477 172.6241 159.52548 172.6241C 160.6962 172.6241 161.64584 171.67445 161.64584 170.50374C 161.64584 169.33302 160.6962 168.38338 159.52548 168.38338C 158.35477 168.38338 157.40512 169.33302 157.40512 170.50374zM130.2575 156.023C 131.22096 156.023 132.00227 155.24167 132.00227 154.27696C 132.00227 153.31476 131.22095 152.53345 130.2575 152.53345C 129.29407 152.53345 128.51274 153.31477 128.51274 154.27696C 128.51274 155.24167 129.29407 156.023 130.2575 156.023zM128.18991 148.1621C 127.25786 148.1621 126.50041 148.91829 126.50041 149.85034C 126.50041 150.78491 127.25786 151.5411 128.18991 151.5411C 129.12321 151.5411 129.87941 150.78491 129.87941 149.85034C 129.87941 148.91829 129.12321 148.1621 128.18991 148.1621zM124.94405 144.56955C 124.04214 144.56955 123.31107 145.30061 123.31107 146.20253C 123.31107 147.10445 124.04213 147.83551 124.94405 147.83551C 125.84598 147.83551 126.578285 147.10445 126.578285 146.20253C 126.578285 145.30061 125.845955 144.56955 124.94405 144.56955zM120.793785 145.20767C 121.66428 145.20767 122.3715 144.50172 122.3715 143.62996C 122.3715 142.7582 121.6643 142.05225 120.793785 142.05225C 119.92203 142.05225 119.21607 142.7582 119.21607 143.62996C 119.21607 144.50172 119.92202 145.20767 120.793785 145.20767zM116.07825 143.9264C 116.943726 143.9264 117.644646 143.2255 117.644646 142.35875C 117.644646 141.49452 116.943726 140.7936 116.07825 140.7936C 115.21403 140.7936 114.5131 141.4945 114.5131 142.35875C 114.5131 143.22548 115.21402 143.9264 116.07825 143.9264zM109.609146 142.25826C 109.609146 143.12498 110.312584 143.82843 111.17931 143.82843C 112.04604 143.82843 112.74948 143.12498 112.74948 142.25826C 112.74948 141.39153 112.04604 140.68808 111.17931 140.68808C 110.312584 140.68808 109.609146 141.39153 109.609146 142.25826zM106.27788 140.7107C 105.40863 140.7107 104.70394 141.41664 104.70394 142.28589C 104.70394 143.15514 105.40863 143.86108 106.27788 143.86108C 107.147125 143.86108 107.851814 143.15514 107.851814 142.28589C 107.851814 141.41664 107.147125 140.7107 106.27788 140.7107zM103.585976 140.49213C 103.585976 139.62036 102.88003 138.91191 102.00826 138.91191C 101.1365 138.91191 100.429306 139.62038 100.429306 140.49213C 100.429306 141.36388 101.136505 142.06984 102.00826 142.06984C 102.88002 142.06984 103.585976 141.36389 103.585976 140.49213zM100.649124 135.8419C 100.649124 136.71617 101.35758 137.42464 102.23186 137.42464C 103.10613 137.42464 103.81459 136.71617 103.81459 135.8419C 103.81459 134.96764 103.10613 134.25917 102.23186 134.25917C 101.35758 134.25917 100.649124 134.96764 100.649124 135.8419zM105.82691 131.36754C 105.82691 130.48322 105.109665 129.76721 104.22659 129.76721C 103.34227 129.76721 102.62502 130.48322 102.62502 131.36754C 102.62502 132.25186 103.34227 132.96786 104.22659 132.96786C 105.10965 132.96786 105.82691 132.25186 105.82691 131.36754zM106.220085 125.24011C 105.308136 125.24011 104.56827 125.97872 104.56827 126.89319C 104.56827 127.805145 105.30813 128.54375 106.220085 128.54375C 107.13204 128.54375 107.8719 127.80513 107.8719 126.89319C 107.8719 125.97872 107.13204 125.24011 106.220085 125.24011zM109.91689 122.41632C 109.91689 121.47673 109.15443 120.71551 108.214836 120.71551C 107.27399 120.71551 106.51278 121.47673 106.51278 122.41632C 106.51278 123.35842 107.274 124.119644 108.214836 124.119644C 109.15443 124.119644 109.91689 123.35842 109.91689 122.41632zM110.20957 116.1884C 109.24109 116.1884 108.456 116.97474 108.456 117.94197C 108.456 118.91171 109.24109 119.69554 110.20957 119.69554C 111.17679 119.69554 111.96188 118.91171 111.96188 117.94197C 111.96188 116.974754 111.176796 116.1884 110.20957 116.1884zM112.203064 111.6638C 111.20695 111.6638 110.399254 112.470245 110.399254 113.46761C 110.399254 114.46498 111.206955 115.27142 112.203064 115.27142C 113.19917 115.27142 114.006874 114.46498 114.006874 113.46761C 114.006874 112.470245 113.19917 111.6638 112.203064 111.6638zM116.05312 108.993256C 116.05312 107.96825 115.221565 107.1392 114.197815 107.1392C 113.172806 107.1392 112.34251 107.96825 112.34251 108.993256C 112.34251 110.018265 113.17281 110.84731 114.197815 110.84731C 115.221565 110.84731 116.05312 110.018265 116.05312 108.993256zM116.19255 102.61208C 115.13991 102.61208 114.28699 103.466255 114.28699 104.51889C 114.28699 105.571526 115.13991 106.42319 116.19255 106.42319C 117.24394 106.42319 118.098114 105.571526 118.098114 104.51889C 118.098114 103.466255 117.24394 102.61208 116.19255 102.61208zM120.42196 100.21286C 120.42196 99.13258 119.54643 98.2558 118.466156 98.2558C 117.38588 98.2558 116.509094 99.132576 116.509094 100.21286C 116.509094 101.293144 117.38587 102.16992 118.466156 102.16992C 119.54644 102.16992 120.42196 101.293144 120.42196 100.21286zM125.04957 99.8737C 125.04957 98.7482 124.13636 97.83625 123.01086 97.83625C 121.88411 97.83625 120.97089 98.7482 120.97089 99.8737C 120.97089 101.00172 121.88411 101.91367 123.01086 101.91367C 124.13636 101.91367 125.04957 101.001724 125.04957 99.8737zM159.85712 175.04341C 159.85712 176.39752 158.75926 177.49539 157.40514 177.49539C 156.04976 177.49539 154.9519 176.39754 154.9519 175.04341C 154.9519 174.70425 155.021 174.38268 155.14409 174.09126C 154.7371 174.32993 154.28992 174.50578 153.78244 174.50578C 152.27132 174.50578 151.04659 173.2798 151.04659 171.76741C 151.04659 171.28757 151.2036 170.86047 151.41966 170.46857C 151.35811 170.47107 151.30661 170.50374 151.2438 170.50374C 149.63219 170.50374 148.32706 169.19736 148.32706 167.58699C 148.32706 166.99911 148.54312 166.4841 148.84082 166.02687C 147.41008 165.75806 146.30594 164.55971 146.30594 163.04984C 146.30594 162.51724 146.47552 162.04242 146.71167 161.60527C 145.32616 161.22842 144.28732 160.015 144.28732 158.51015C 144.28732 158.02026 144.41293 157.56554 144.60638 157.1485C 143.27614 156.68623 142.30765 155.46025 142.30765 153.97299C 142.30765 153.49817 142.40688 153.04848 142.58273 152.63646C 141.3065 152.12898 140.39832 150.89294 140.39832 149.4333C 140.39832 148.97607 140.49754 148.54648 140.65834 148.14702C 139.38586 147.61443 138.49025 146.3608 138.49025 144.89613C 138.49025 144.45146 138.59325 144.03442 138.74274 143.64502C 137.4728 143.08981 136.58218 141.83116 136.58218 140.35646C 136.58218 139.92184 136.6877 139.51736 136.82965 139.13298C 135.56346 138.56018 134.67287 137.29903 134.67287 135.81929C 134.67287 135.38718 134.7809 134.98773 134.91782 134.60587C 133.6642 134.01297 132.78238 132.75934 132.78238 131.27962C 132.78238 130.81735 132.89041 130.38274 133.04617 129.97575C 131.8453 129.38286 130.99992 128.17195 130.99992 126.74246C 130.99992 126.22242 131.11674 125.73253 131.31395 125.28534C 130.1583 124.73013 129.34558 123.57197 129.34558 122.20529C 129.34558 121.60234 129.54153 121.06472 129.81287 120.57231C 128.64465 120.11759 127.809326 118.9946 127.809326 117.66561C 127.809326 116.95966 128.08568 116.341644 128.47885 115.81658C 127.23276 115.53018 126.283134 114.46498 126.283134 113.12845C 126.283134 112.30442 126.65119 111.57838 127.21643 111.06336C 125.86484 111.04326 124.773254 109.945404 124.773254 108.588776C 124.773254 107.21959 125.88367 106.10917 127.25413 106.10917C 128.15855 106.10917 128.916 106.619156 129.34938 107.3427C 129.48505 106.97842 129.68729 106.656845 129.94228 106.372955C 128.813 106.26241 127.88973 105.52884 127.524216 104.496284C 127.31319 105.49365 126.46906 106.257385 125.40888 106.257385C 124.18917 106.257385 123.20185 105.270065 123.20185 104.051605C 123.20185 102.833145 124.18917 101.843315 125.40888 101.843315C 126.30451 101.843315 127.068245 102.38345 127.41367 103.1497C 127.521706 102.39351 127.90356 101.75036 128.48265 101.30318C 128.39346 101.313225 128.31558 101.355934 128.22389 101.355934C 126.74667 101.355934 125.549576 100.160095 125.549576 98.68288C 125.549576 97.20566 126.74667 96.00731 128.22389 96.00731C 128.51407 96.00731 128.7791 96.0877 129.04037 96.17312C 128.76152 95.71589 128.55801 95.20841 128.55801 94.6331C 128.55801 93.809074 128.89215 93.065445 129.42851 92.52028C 129.20995 92.57304 129.00142 92.65343 128.76653 92.65343C 127.18881 92.65343 125.91007 91.37468 125.91007 89.796974C 125.91007 88.21927 127.18882 86.94052 128.76653 86.94052C 129.40967 86.94052 129.97368 87.19175 130.451 87.551C 130.451 87.52337 130.43593 87.500755 130.43593 87.47312C 130.43593 85.75473 131.83023 84.36041 133.54865 84.36041C 133.66924 84.36041 133.77223 84.41568 133.88905 84.428246C 133.69435 84.016235 133.56749 83.569046 133.56749 83.081665C 133.56749 81.320564 134.99696 79.891075 136.75932 79.891075C 136.86609 79.891075 136.95528 79.94132 137.05954 79.95136C 136.9176 79.58959 136.82465 79.200195 136.82465 78.788185C 136.82465 77.02457 138.25539 75.595085 140.019 75.595085C 140.19862 75.595085 140.35439 75.667946 140.52774 75.69808C 140.48001 75.479515 140.39459 75.27351 140.39459 75.03986C 140.39459 73.30138 141.80397 71.89198 143.54121 71.89198C 143.80249 71.89198 144.03613 71.97991 144.27856 72.0402C 144.26851 71.94222 144.22078 71.8568 144.22078 71.7538C 144.22078 70.08565 145.57364 68.73405 147.24052 68.73405C 148.90741 68.73405 150.25902 70.08565 150.25902 71.7538C 150.25902 73.42195 148.90742 74.77355 147.24052 74.77355C 147.01694 74.77355 146.81847 74.69316 146.60869 74.645424C 146.62628 74.78108 146.68784 74.89916 146.68784 75.039856C 146.68784 76.77834 145.27971 78.18523 143.54121 78.18523C 143.37415 78.18523 143.23094 78.11488 143.07143 78.08976C 143.12419 78.32089 143.21211 78.53946 143.21211 78.78817C 143.21211 80.55179 141.78264 81.98378 140.01901 81.98378C 139.91225 81.98378 139.82181 81.93353 139.71628 81.92349C 139.85822 82.282745 139.95117 82.66963 139.95117 83.08165C 139.95117 83.342926 139.86198 83.57406 139.80295 83.81775C 140.30164 82.687225 141.42462 81.89335 142.73854 81.89335C 142.94203 81.89335 143.1204 81.97374 143.31386 82.00891C 143.30507 81.91847 143.25984 81.83808 143.25984 81.745125C 143.25984 80.016685 144.66043 78.61735 146.38762 78.61735C 146.7004 78.61735 146.98553 78.7103 147.27068 78.795715C 147.28575 77.17278 148.59967 75.858864 150.22636 75.858864C 151.8606 75.858864 153.18582 77.18534 153.18582 78.82083C 153.18582 80.45632 151.8606 81.78029 150.22636 81.78029C 149.96634 81.78029 149.7327 81.69487 149.49153 81.63207C 149.4928 81.67227 149.51414 81.70493 149.51414 81.745125C 149.51414 83.471054 148.1148 84.87039 146.38762 84.87039C 146.20924 84.87039 146.05473 84.79753 145.88391 84.769905C 145.89647 84.88547 145.953 84.98847 145.953 85.10906C 145.953 86.88524 144.51347 88.324776 142.73856 88.324776C 142.62425 88.324776 142.52753 88.27202 142.41699 88.25945C 142.47855 88.51068 142.57024 88.75186 142.57024 89.020676C 142.57024 90.291885 141.82283 91.362114 140.7614 91.897224C 141.09428 91.78417 141.4372 91.686195 141.80775 91.686195C 141.95473 91.686195 142.08034 91.75152 142.22102 91.7691C 142.21097 91.661064 142.15822 91.565605 142.15822 91.45506C 142.15822 89.66883 143.6078 88.21925 145.39528 88.21925C 145.66032 88.21925 145.89648 88.30969 146.14394 88.369995C 146.19293 86.70939 147.5395 85.372856 149.21141 85.372856C 149.62091 85.372856 150.0078 85.460785 150.3658 85.6065C 150.51277 84.141846 151.7086 82.98369 153.21095 82.98369C 154.81378 82.98369 156.11388 84.28253 156.11388 85.88536C 156.11388 87.48819 154.81378 88.78955 153.21095 88.78955C 152.87682 88.78955 152.56781 88.70413 152.26886 88.59862C 152.19098 90.23662 150.86575 91.54552 149.21143 91.54552C 149.00417 91.54552 148.82327 91.467636 148.62732 91.42744C 148.62732 91.437485 148.63234 91.44503 148.63234 91.45507C 148.63234 93.24381 147.18275 94.69339 145.39528 94.69339C 145.26967 94.69339 145.16289 94.63561 145.0398 94.62305C 145.05487 94.74866 145.11516 94.86172 145.11516 94.99235C 145.11516 96.200745 144.43433 97.213196 143.4671 97.788506C 143.73843 97.71816 144.00096 97.622696 144.29489 97.622696C 144.50719 97.622696 144.69183 97.7056 144.8928 97.743286C 144.92673 96.01987 146.32228 94.63058 148.05325 94.63058C 148.42131 94.63058 148.76297 94.723526 149.09207 94.839096C 149.26416 93.34179 150.49141 92.16102 152.03645 92.16102C 152.55147 92.16102 153.01122 92.32432 153.43579 92.550415C 153.63803 91.17872 154.7698 90.10848 156.19678 90.10848C 157.76695 90.10848 159.04066 91.3822 159.04066 92.95237C 159.04066 94.52254 157.76694 95.79626 156.19678 95.79626C 155.75713 95.79626 155.35266 95.67818 154.98083 95.49981C 154.81125 97.00215 153.58401 98.18543 152.03645 98.18543C 151.73372 98.18543 151.45863 98.09499 151.18353 98.0146C 151.07048 99.66014 149.73145 100.97657 148.05324 100.97657C 147.9 100.97657 147.76935 100.91125 147.62239 100.88864C 147.62239 100.916275 147.63747 100.93889 147.63747 100.96401C 147.63747 102.252815 146.88379 103.33811 145.81482 103.89583C 146.12509 103.79534 146.43912 103.69987 146.78204 103.69987C 147.1011 103.69987 147.39127 103.795334 147.68143 103.880745C 147.82463 102.31309 149.10338 101.06699 150.70996 101.06699C 151.18478 101.06699 151.62192 101.19512 152.02513 101.386055C 152.27008 100.01185 153.41693 98.94916 154.86023 98.94916C 155.48076 98.94916 156.02592 99.18531 156.4995 99.51442C 156.74445 98.22562 157.82472 97.23328 159.1826 97.23328C 160.72011 97.23328 161.96745 98.48187 161.96745 100.01939C 161.96745 101.5569 160.72011 102.802986 159.1826 102.802986C 158.6299 102.802986 158.14378 102.599495 157.71042 102.32314C 157.4931 103.7275 156.32867 104.82536 154.86024 104.82536C 154.44948 104.82536 154.06009 104.737434 153.70586 104.58669C 153.48477 106.07396 152.25752 107.23212 150.70998 107.23212C 150.45372 107.23212 150.22636 107.14419 149.98895 107.0864C 149.90605 108.799774 148.51677 110.17147 146.78203 110.17147C 146.62502 110.17147 146.4906 110.10364 146.33987 110.08354C 146.30345 110.922646 145.97308 111.67883 145.43672 112.25666C 145.7181 112.26922 145.97937 112.33956 146.23813 112.41745C 146.48181 110.93018 147.7141 109.777054 149.27043 109.777054C 149.69626 109.777054 150.10074 109.86498 150.4713 110.018234C 150.70871 108.60382 151.88445 107.503456 153.36795 107.503456C 153.95833 107.503456 154.47713 107.71951 154.94063 108.01344C 155.21948 106.72464 156.31233 105.73983 157.68529 105.73983C 158.41258 105.73983 159.05824 106.03377 159.5632 106.47844C 159.84583 105.27506 160.87712 104.35808 162.16843 104.35808C 163.67453 104.35808 164.89424 105.57904 164.89424 107.0839C 164.89424 108.59126 163.67453 109.81223 162.16843 109.81223C 161.50142 109.81223 160.9123 109.54594 160.43747 109.146484C 160.1762 110.455376 159.0733 111.46532 157.68527 111.46532C 157.15268 111.46532 156.68163 111.2794 156.25453 111.025665C 155.99702 112.417465 154.83385 113.490204 153.36794 113.490204C 152.99864 113.490204 152.65193 113.402275 152.32535 113.279175C 152.13441 114.82423 150.86697 116.03766 149.27043 116.03766C 149.0167 116.03766 148.79059 115.94973 148.55318 115.891945C 148.4728 116.68079 148.16502 117.404335 147.63118 117.934425C 148.07083 117.936935 148.49162 118.022354 148.8735 118.183136C 149.19382 116.85917 150.33313 115.854256 151.7576 115.854256C 152.30528 115.854256 152.79015 116.03766 153.23357 116.29391C 153.49861 114.96241 154.61783 113.94241 156.02469 113.94241C 156.73064 113.94241 157.35368 114.223785 157.85739 114.64333C 158.1639 113.43745 159.20775 112.528 160.5091 112.528C 161.36201 112.528 162.0981 112.93248 162.61061 113.53793C 162.8945 112.36972 163.89941 111.482895 165.1543 111.482895C 166.62775 111.482895 167.82108 112.678734 167.82108 114.150925C 167.82108 115.625626 166.62775 116.818954 165.1543 116.818954C 164.36041 116.818954 163.66702 116.457184 163.17839 115.907005C 162.90079 117.1531 161.83936 118.10525 160.5091 118.10525C 159.85464 118.10525 159.27809 117.84649 158.80327 117.467125C 158.51059 118.76346 157.4077 119.74827 156.0247 119.74827C 155.53104 119.74827 155.08888 119.59502 154.6819 119.37645C 154.4357 120.7984 153.25116 121.90128 151.75761 121.90128C 151.40715 121.90128 151.08182 121.810844 150.76903 121.7003C 150.62709 122.56452 150.16985 123.29057 149.49028 123.782974C 149.64352 123.76036 149.78171 123.692535 149.94122 123.692535C 150.50648 123.692535 151.00894 123.88347 151.46744 124.147255C 151.78775 122.88358 152.88185 121.92892 154.24475 121.92892C 154.91428 121.92892 155.50214 122.1927 155.99455 122.57206C 156.28473 121.325966 157.34866 120.37885 158.68268 120.37885C 159.51675 120.37885 160.24532 120.7582 160.76033 121.33351C 161.07436 120.18289 162.08304 119.31616 163.33415 119.31616C 164.33153 119.31616 165.1656 119.881424 165.63791 120.68284C 165.89165 119.507095 166.88777 118.6077 168.13889 118.6077C 169.58093 118.6077 170.74913 119.77591 170.74913 121.21795C 170.74913 122.65748 169.58092 123.82569 168.13889 123.82569C 167.19301 123.82569 166.40164 123.2956 165.94441 122.54192C 165.69695 123.78802 164.65059 124.745186 163.33417 124.745186C 162.54907 124.745186 161.8557 124.40101 161.35951 123.86841C 161.0505 125.08686 159.9966 126.00635 158.68268 126.00635C 158.05963 126.00635 157.51447 125.76517 157.04845 125.42099C 156.77461 126.74998 155.65288 127.76746 154.24475 127.76746C 153.76868 127.76746 153.33781 127.62677 152.94089 127.4258C 152.64946 128.84775 151.44986 129.93806 149.94124 129.93806C 149.81436 129.93806 149.70634 129.88028 149.58324 129.8652C 149.71765 130.1918 149.77542 130.55356 149.79678 130.92287C 150.31682 130.07875 151.20743 129.48584 152.27263 129.48584C 152.95596 129.48584 153.55515 129.75465 154.05634 130.14406C 154.36534 128.92561 155.41798 128.00612 156.7319 128.00612C 157.52704 128.00612 158.23926 128.34276 158.75052 128.87285C 159.05325 127.699615 160.07198 126.8153 161.34067 126.8153C 162.33176 126.8153 163.15956 127.37051 163.63689 128.16188C 163.90947 126.99367 164.90683 126.10433 166.15796 126.10433C 167.34879 126.10433 168.31726 126.908264 168.64636 127.99356C 168.79836 126.73491 169.82587 125.74508 171.12473 125.74508C 172.52658 125.74508 173.66338 126.88314 173.66338 128.28499C 173.66338 129.68683 172.52658 130.82239 171.12473 130.82239C 169.98918 130.82239 169.06467 130.0662 168.73932 129.03616C 168.58733 130.35008 167.51207 131.38513 166.15796 131.38513C 165.20831 131.38513 164.41444 130.85504 163.94968 130.10387C 163.68338 131.32735 162.6433 132.26442 161.34068 132.26442C 160.58826 132.26442 159.90744 131.96043 159.41502 131.46552C 159.11606 132.69905 158.05588 133.6336 156.73192 133.6336C 156.11264 133.6336 155.56999 133.39243 155.10522 133.05327C 154.81505 134.38226 153.68831 135.39722 152.27263 135.39722C 152.02643 135.39722 151.8066 135.31432 151.57672 135.25653C 151.69981 135.58565 151.78902 135.93484 151.78902 136.30666C 151.78902 137.32663 151.2539 138.18584 150.48389 138.73854C 150.62206 138.71844 150.74516 138.65816 150.88837 138.65816C 151.274 138.65816 151.63954 138.73854 151.97493 138.87672C 151.89455 138.61797 151.81163 138.35417 151.81163 138.06778C 151.81163 136.52524 153.0615 135.27666 154.60275 135.27666C 155.41422 135.27666 156.12897 135.63339 156.63895 136.1861C 156.92032 134.99527 157.94156 134.08835 159.2203 134.08835C 160.18878 134.08835 161.00026 134.62598 161.47633 135.39221C 161.715 134.19135 162.72493 133.26683 163.9974 133.26683C 165.21585 133.26683 166.19565 134.11598 166.48833 135.24399C 166.60263 133.95016 167.65779 132.92265 168.98302 132.92265C 170.38487 132.92265 171.52167 134.0582 171.52167 135.46005C 171.52167 136.86191 170.38487 137.99997 168.98302 137.99997C 167.80853 137.99997 166.86392 137.18599 166.57375 136.1032C 166.45944 137.44475 165.36786 138.50743 163.9974 138.50743C 163.06912 138.50743 162.29158 137.99493 161.82681 137.26637C 161.59317 138.52502 160.54305 139.49477 159.22034 139.49477C 158.45284 139.49477 157.76698 139.16817 157.27583 138.65315C 156.99823 139.90427 155.93553 140.85893 154.60277 140.85893C 154.23723 140.85893 153.8918 140.77855 153.57147 140.6504C 153.66066 140.92926 153.74608 141.21065 153.74608 141.51714C 153.74608 143.09485 152.46608 144.37358 150.88837 144.37358C 150.17363 144.37358 149.53928 144.08467 149.03934 143.65256C 148.91246 143.95906 148.714 144.21782 148.50171 144.46654C 149.36215 144.57959 150.07816 145.0494 150.53413 145.74026C 150.92856 144.74039 151.89201 144.0269 153.03384 144.0269C 153.56267 144.0269 154.02745 144.21783 154.44449 144.48163C 154.3641 144.22789 154.28496 143.97415 154.28496 143.69278C 154.28496 142.23064 155.47075 141.04485 156.93414 141.04485C 157.92021 141.04485 158.7455 141.60759 159.20148 142.4065C 159.38235 141.1604 160.41113 140.18816 161.70747 140.18816C 162.91965 140.18816 163.88812 141.03981 164.16322 142.16783C 164.20216 140.81624 165.29625 139.73093 166.6554 139.73093C 168.0384 139.73093 169.16014 140.8514 169.16014 142.23567C 169.16014 143.61995 168.0384 144.74292 166.6554 144.74292C 165.48216 144.74292 164.54382 143.91888 164.26999 142.83359C 164.23105 144.22289 163.10555 145.34084 161.70747 145.34084C 160.75658 145.34084 159.96019 144.80069 159.513 144.03445C 159.3384 145.33078 158.27444 146.34323 156.93414 146.34323C 156.4229 146.34323 155.97194 146.15984 155.56746 145.90862C 155.65163 146.16989 155.73201 146.43619 155.73201 146.7251C 155.73201 148.21487 154.5236 149.42328 153.03383 149.42328C 152.12439 149.42328 151.36066 148.94344 150.87076 148.25507C 150.715 148.7123 150.47256 149.11678 150.12964 149.44086C 151.38829 149.44086 152.402 150.30759 152.7223 151.46574C 152.95093 150.29001 153.93698 149.38559 155.1793 149.38559C 155.85133 149.38559 156.45303 149.65692 156.90775 150.0815C 156.82986 149.83781 156.7545 149.59161 156.7545 149.32028C 156.7545 147.93352 157.87874 146.81052 159.26427 146.81052C 160.65103 146.81052 161.77403 147.9335 161.77403 149.32028C 161.77403 150.70706 160.65105 151.83005 159.26427 151.83005C 158.6073 151.83005 158.01944 151.56375 157.57225 151.14922C 157.65515 151.40045 157.73051 151.6567 157.73051 151.93556C 157.73051 153.34494 156.58868 154.48552 155.1793 154.48552C 154.02492 154.48552 153.08783 153.70673 152.77255 152.65407C 152.61806 153.51578 152.09424 154.23428 151.33427 154.61615C 151.58424 154.53577 151.83798 154.45789 152.11433 154.45789C 153.54381 154.45789 154.70323 155.61856 154.70323 157.04803C 154.70323 158.47751 153.54382 159.63568 152.11433 159.63568C 151.57419 159.63568 151.09938 159.43219 150.68486 159.1483C 150.61075 159.50755 150.49393 159.83665 150.31178 160.14316C 150.92603 160.33911 151.43225 160.70842 151.81412 161.21088C 152.11935 160.21602 153.00996 159.4774 154.1053 159.4774C 155.44937 159.4774 156.53844 160.56773 156.53844 161.91179C 156.53844 163.25584 155.44937 164.34367 154.1053 164.34367C 153.42447 164.34367 152.81274 164.0623 152.37183 163.61261C 152.28766 164.04974 152.12436 164.44417 151.87566 164.79588C 152.7964 165.00441 153.57019 165.59729 153.93196 166.44896C 154.094 165.34859 155.00093 164.4919 156.14403 164.4919C 157.40141 164.4919 158.4214 165.51187 158.4214 166.77052C 158.4214 168.02666 157.40143 169.04665 156.14403 169.04665C 155.25217 169.04665 154.49849 168.51907 154.12416 167.77292C 154.09401 168.2427 153.94202 168.66226 153.71466 169.04665C 153.73853 169.04414 153.75862 169.03157 153.78249 169.03157C 155.29361 169.03157 156.51834 170.25755 156.51834 171.76743C 156.51834 172.18446 156.40906 172.57135 156.24199 172.92558C 156.59245 172.73215 156.97557 172.59145 157.40517 172.59145C 158.75928 172.59145 159.85715 173.6893 159.85715 175.04343L159.85715 175.04343L159.85713 175.04343zM135.28333 89.987915C 135.50691 89.940186 135.71794 89.85226 135.95662 89.85226C 136.06088 89.85226 136.1488 89.902504 136.25056 89.912544C 136.17897 89.66634 136.10988 89.420135 136.09857 89.15636C 135.87875 89.487976 135.60992 89.76182 135.28334 89.987915L135.28334 89.987915L135.28333 89.987915zM147.0483 127.948364C 147.04703 127.948364 147.04703 127.95087 147.04579 127.95087L147.04579 127.95087L147.04956 127.95087C 147.0483 127.95087 147.0483 127.948364 147.0483 127.948364zM150.96367 154.75682C 150.69485 154.84476 150.42102 154.92766 150.1233 154.92766C 149.70502 154.92766 149.32063 154.81963 148.9664 154.6513C 148.90485 154.94273 148.84079 155.2241 148.71014 155.48286C 149.08699 155.62857 149.41986 155.84212 149.71506 156.10843C 149.9487 155.51302 150.39839 155.04323 150.96365 154.75684L150.96365 154.75684L150.96367 154.75682zM148.1939 150.23473C 148.17255 150.23473 148.15369 150.24728 148.13234 150.24728C 147.79945 150.24728 147.49297 150.15935 147.19527 150.05887C 147.14502 150.32516 147.11865 150.5965 147.01062 150.83766C 147.22292 150.9256 147.38747 151.08386 147.57463 151.20949C 147.71532 150.8427 147.91881 150.50604 148.19391 150.23473L148.19391 150.23473L148.1939 150.23473zM149.2189 139.2586C 149.05687 139.28372 148.91115 139.35408 148.74158 139.35408C 148.1826 139.35408 147.68768 139.16315 147.23672 138.89935C 147.14754 139.11038 146.98676 139.27368 146.85863 139.4621C 147.43016 139.59776 147.96152 139.83643 148.36348 140.24089C 148.56697 139.84145 148.86342 139.52238 149.2189 139.25859L149.2189 139.25859L149.2189 139.2586zM144.29485 104.30536C 144.19687 104.30536 144.11397 104.25763 144.01724 104.25009C 144.01851 104.272705 144.03107 104.2928 144.03107 104.315414C 144.03107 105.18466 143.6806 105.955925 143.1455 106.558876C 143.30629 106.568924 143.45073 106.61916 143.60399 106.651825C 143.70573 105.53136 144.35641 104.5993 145.30354 104.10187C 144.97946 104.204865 144.65286 104.30536 144.29486 104.30536L144.29486 104.30536L144.29485 104.30536zM141.8077 98.301025C 141.70218 98.301025 141.61299 98.25078 141.51 98.24074C 141.53261 98.39399 141.60043 98.52965 141.60043 98.68792C 141.60043 98.89393 141.52005 99.072296 141.48361 99.26574C 141.76875 98.79846 142.15062 98.41659 142.62167 98.137726C 142.35411 98.20556 142.09662 98.301025 141.8077 98.301025zM140.3443 92.06557C 140.0177 92.17611 139.68356 92.271576 139.32056 92.271576C 139.205 92.271576 139.10826 92.21631 138.99522 92.20625C 139.07437 92.485115 139.16858 92.75895 139.16858 93.062935C 139.16858 93.08053 139.15852 93.09811 139.15852 93.11569C 139.47005 92.67604 139.8582 92.30925 140.34431 92.06556L140.34431 92.06556L140.3443 92.06556zM136.7593 86.27478C 136.62112 86.27478 136.50429 86.21197 136.37114 86.1969C 136.5269 86.53857 136.60603 86.91541 136.6274 87.30984C 137.20396 86.40542 138.16867 85.77232 139.32056 85.77232C 139.44492 85.77232 139.55043 85.8301 139.67102 85.84267C 139.61324 85.60149 139.5228 85.37035 139.5228 85.109085C 139.5228 84.8453 139.61324 84.609146 139.67354 84.365456C 139.17862 85.48592 138.06317 86.27479 136.7593 86.27477zM162.1948 175.33234C 161.00146 175.33234 160.03299 176.30208 160.03299 177.4954C 160.03299 178.69125 161.00146 179.65848 162.1948 179.65848C 163.38939 179.65848 164.35786 178.69125 164.35786 177.4954C 164.35786 176.30208 163.38939 175.33234 162.1948 175.33234z" stroke="none" fill="#FFFFFF" fill-rule="nonzero" />
		</g>
	</g>
</g>
</svg>