<?xml version="1.0" encoding="UTF-8"?><svg width="27" height="26" viewBox="0 0 27 26" fill="none" xmlns="http://www.w3.org/2000/svg">
<path d="M21 -0.00146484H6C2.68629 -0.00146484 0 2.68483 0 5.99854V19.9985C0 23.3122 2.68629 25.9985 6 25.9985H21C24.3137 25.9985 27 23.3122 27 19.9985V5.99854C27 2.68483 24.3137 -0.00146484 21 -0.00146484Z" fill="#000B1D"/>
<path d="M17.513 16.6878V16.0788C17.5152 15.9785 17.5532 15.8824 17.62 15.8078C18.0842 15.2438 18.3414 14.5381 18.349 13.8078C18.349 12.2938 17.549 11.4478 16.333 11.4478C15.117 11.4478 14.294 12.3268 14.294 13.8078C14.3147 14.5417 14.5841 15.2469 15.058 15.8078C15.1249 15.8824 15.1629 15.9785 15.165 16.0788V16.6788C15.1669 16.7814 15.1307 16.8812 15.0636 16.9589C14.9964 17.0365 14.9029 17.0867 14.801 17.0998C12.366 17.3148 11.998 18.9828 11.998 19.6398C11.998 19.7148 11.998 19.9318 11.998 19.9318H20.698V19.6418C20.698 19.0118 20.268 17.3508 17.874 17.1078C17.7729 17.0939 17.6803 17.0435 17.6136 16.9662C17.547 16.8889 17.5109 16.7898 17.512 16.6878H17.513Z" fill="white"/>
<path d="M11.9994 5.13965L7.64844 9.49065H11.9994V5.13965ZM17.6554 5.13965H12.8694V9.92565C12.8694 10.041 12.8236 10.1517 12.742 10.2332C12.6605 10.3148 12.5498 10.3606 12.4344 10.3606H7.64844V18.6266C7.64844 18.6838 7.65969 18.7403 7.68155 18.7931C7.70341 18.8459 7.73545 18.8938 7.77585 18.9342C7.81624 18.9746 7.86419 19.0067 7.91697 19.0285C7.96975 19.0504 8.02631 19.0616 8.08344 19.0616H10.7544C10.8764 18.3277 11.2117 17.6459 11.7185 17.1013C12.2253 16.5566 12.8812 16.1731 13.6044 15.9986C13.2143 15.3342 13.0028 14.5801 12.9904 13.8096C12.9478 13.3445 13.0025 12.8756 13.1511 12.4327C13.2997 11.9899 13.539 11.5829 13.8536 11.2376C14.1682 10.8923 14.5512 10.6164 14.9784 10.4274C15.4055 10.2383 15.8673 10.1403 16.3344 10.1396C16.9537 10.1336 17.5621 10.3028 18.0894 10.6276V5.57465C18.0894 5.45928 18.0436 5.34864 17.962 5.26706C17.8805 5.18548 17.7698 5.13965 17.6544 5.13965H17.6554Z" fill="white"/>
</svg>
