<?xml version="1.0" encoding="UTF-8"?><svg xmlns="http://www.w3.org/2000/svg" width="32" height="32" viewBox="0 0 32 32">
  <g id="Adobe_Portfolio" data-name="Adobe Portfolio" transform="translate(0 0.354)">
    <g id="Layer_2" data-name="Layer 2">
      <g id="Surfaces">
        <g id="Utility_Surface" data-name="Utility Surface">
          <g id="Outline_no_shadow" data-name="Outline no shadow">
            <rect id="Rectangle_221301" data-name="Rectangle 221301" width="32" height="32" rx="6" transform="translate(0 -0.354)" fill="#000b1d"/>
          </g>
        </g>
      </g>
      <g id="Outlined_Mnemonics_Logos" data-name="Outlined Mnemonics Logos" transform="translate(6.999 8)">
        <g id="Pf" transform="translate(0 0)">
          <path id="Path_357533" data-name="Path 357533" d="M34.473,18.689h-1.32c-.1-.014-.15-.065-.15-.151v-2.2a.133.133,0,0,1,.15-.15h1.32v-.313a7.458,7.458,0,0,1,.107-1.342,4.252,4.252,0,0,1,.343-1.084,3.722,3.722,0,0,1,1.224-1.438,3.588,3.588,0,0,1,2.1-.558,5.454,5.454,0,0,1,.622.032,1.963,1.963,0,0,1,.494.118.22.22,0,0,1,.15.214v2.126q0,.15-.172.107a2.4,2.4,0,0,0-.322-.021H38.7a1.45,1.45,0,0,0-.676.15.918.918,0,0,0-.429.5,2.52,2.52,0,0,0-.21.956v.548H39.2c.086,0,.139.014.161.043a.216.216,0,0,1,.032.129v2.181c0,.1-.064.15-.193.15H37.386V26.62a.286.286,0,0,1-.032.129q-.032.064-.161.064H34.644c-.115,0-.172-.064-.172-.193Z" transform="translate(-21.536 -11.452)" fill="#fff"/>
          <path id="Path_357534" data-name="Path 357534" d="M13.157,27.687V13.97c0-.1.043-.15.129-.15q.343,0,.816-.011l1.02-.021,1.159-.021q.612-.01,1.213-.011a8.074,8.074,0,0,1,2.748.408,4.768,4.768,0,0,1,1.792,1.095,4.209,4.209,0,0,1,.977,1.513,5.037,5.037,0,0,1,.3,1.728,4.768,4.768,0,0,1-.794,2.834,4.485,4.485,0,0,1-2.146,1.621,8.552,8.552,0,0,1-3.006.5q-.472,0-.666-.011c-.128-.007-.322-.01-.58-.01v4.229a.17.17,0,0,1-.145.193.167.167,0,0,1-.048,0H13.307C13.207,27.859,13.157,27.8,13.157,27.687ZM16.119,16.4v4.444q.279.022.515.021h.708a5.079,5.079,0,0,0,1.535-.214,2.318,2.318,0,0,0,1.094-.708,2.061,2.061,0,0,0,.419-1.374,2.167,2.167,0,0,0-.311-1.181,2.005,2.005,0,0,0-.934-.762,3.989,3.989,0,0,0-1.567-.268q-.516,0-.912.01T16.119,16.4Z" transform="translate(-13.157 -12.424)" fill="#fff"/>
        </g>
      </g>
    </g>
  </g>
</svg>
