<?xml version="1.0" encoding="UTF-8"?><svg id="Adobe_Stock" data-name="Adobe Stock" xmlns="http://www.w3.org/2000/svg" width="32" height="32" viewBox="0 0 32 32">
  <g id="Layer_2" data-name="Layer 2" transform="translate(0 0)">
    <g id="Surfaces">
      <g id="Utility_Surface" data-name="Utility Surface">
        <g id="Outline_no_shadow" data-name="Outline no shadow">
          <rect id="Rectangle_220783" data-name="Rectangle 220783" width="32" height="32" rx="6" fill="#000b1d"/>
        </g>
      </g>
    </g>
    <g id="Outlined_Mnemonics_Logos" data-name="Outlined Mnemonics Logos" transform="translate(7 9)">
      <g id="St">
        <path id="Path_357401" data-name="Path 357401" d="M17.761,28.335a10.964,10.964,0,0,1-2.235-.209,7.336,7.336,0,0,1-1.684-.539.375.375,0,0,1-.176-.375v-2.62a.128.128,0,0,1,.055-.121.146.146,0,0,1,.143.011,7.478,7.478,0,0,0,1.96.859,7.576,7.576,0,0,0,2.025.286,3.177,3.177,0,0,0,1.794-.385,1.144,1.144,0,0,0,.539-.958,1.3,1.3,0,0,0-.176-.672,1.907,1.907,0,0,0-.616-.583,7.17,7.17,0,0,0-1.211-.594l-1.1-.463a8.17,8.17,0,0,1-2.1-1.222,3.519,3.519,0,0,1-1.046-1.4,4.456,4.456,0,0,1-.286-1.607A3.951,3.951,0,0,1,16,14.057a6.677,6.677,0,0,1,2.906-.562,13.776,13.776,0,0,1,1.97.132,4.673,4.673,0,0,1,1.464.418.3.3,0,0,1,.154.286v2.488a.151.151,0,0,1-.055.1c-.037.037-.084.033-.143-.011a6.143,6.143,0,0,0-1.541-.551,8.309,8.309,0,0,0-1.828-.2,4.491,4.491,0,0,0-1.079.11,2.653,2.653,0,0,0-.716.275,1.059,1.059,0,0,0-.407.418,1.109,1.109,0,0,0-.132.517,1.046,1.046,0,0,0,.2.628,2.159,2.159,0,0,0,.66.551,14.118,14.118,0,0,0,1.277.649l.815.308a8.886,8.886,0,0,1,2.268,1.266,3.858,3.858,0,0,1,1.144,1.454,4.277,4.277,0,0,1,.331,1.684,3.841,3.841,0,0,1-.694,2.279,4.428,4.428,0,0,1-1.926,1.508A7.338,7.338,0,0,1,17.761,28.335Z" transform="translate(-13.644 -13.495)" fill="#fff"/>
        <path id="Path_357402" data-name="Path 357402" d="M37.847,26.26v1.806q0,.243-.177.286a7.617,7.617,0,0,1-.881.22,5.686,5.686,0,0,1-1.057.088,3.193,3.193,0,0,1-2.246-.748,3.121,3.121,0,0,1-.815-2.4V20.023H31.343c-.118,0-.176-.066-.176-.2l.017-2.168q0-.176.2-.176h1.33c.014-.249.016-.523.039-.853s.051-.66.088-.991.069-.6.1-.8A.4.4,0,0,1,33,14.712a.231.231,0,0,1,.11-.077l2.62-.33a.142.142,0,0,1,.11,0c.029.015.044.059.044.132q-.044.507-.066,1.376c-.015.58-.012,1.125-.027,1.668h1.928c.088,0,.132.059.132.176l-.017,2.212a.136.136,0,0,1-.11.155H35.786v4.74a1.767,1.767,0,0,0,.222,1.068,1.139,1.139,0,0,0,.936.319c.132,0,.257,0,.375-.011s.235-.018.352-.033a.141.141,0,0,1,.121.011A.155.155,0,0,1,37.847,26.26Z" transform="translate(-20.783 -13.82)" fill="#fff"/>
      </g>
    </g>
  </g>
</svg>
