<?xml version="1.0" encoding="UTF-8"?><svg id="Group_323166" data-name="Group 323166" xmlns="http://www.w3.org/2000/svg" width="32" height="32" viewBox="0 0 32 32">
  <g id="Adobe_Fonts" data-name="Adobe Fonts">
    <g id="Group_302285" data-name="Group 302285">
      <rect id="Rectangle_221212" data-name="Rectangle 221212" width="32" height="32" rx="6" fill="#000b1d"/>
    </g>
  </g>
  <g id="Smock_Learn_18_N" transform="translate(5 5)">
    <rect id="Canvas" width="22.519" height="22.519" transform="translate(0 0)" fill="#fff" opacity="0"/>
    <path id="Path_357485" data-name="Path 357485" d="M10.115,3.96A4.893,4.893,0,0,0,5.064,8.692c0,.109,0,.216,0,.325a5.422,5.422,0,0,0,1.551,3.6A3.58,3.58,0,0,1,7.64,14.663V17.79a1.207,1.207,0,0,0,.384.882l.923.862a.6.6,0,0,0,.416.163h1.5a.6.6,0,0,0,.411-.163l.927-.863a1.2,1.2,0,0,0,.383-.882V15.013a2.887,2.887,0,0,1,.32-1.4c.422-.769,1.086-1.379,1.547-2.127a4.688,4.688,0,0,0,.717-2.471A4.9,4.9,0,0,0,10.44,3.96C10.333,3.957,10.224,3.957,10.115,3.96Zm2.376,7.757a6.906,6.906,0,0,0-1.175,1.8,3.885,3.885,0,0,0-.211,1.338H9.131a4.266,4.266,0,0,0-.069-.845,3.629,3.629,0,0,0-.415-1.057,10,10,0,0,0-.909-1.247A4.068,4.068,0,0,1,6.507,9.018,3.424,3.424,0,0,1,9.729,5.4a3.171,3.171,0,0,1,.386,0,3.426,3.426,0,0,1,3.608,3.612,4.075,4.075,0,0,1-1.232,2.7Z" transform="translate(1.56 1.377)" fill="#fff"/>
    <rect id="Rectangle_221243" data-name="Rectangle 221243" width="1.481" height="3.456" rx="0.409" transform="translate(10.935 0.558)" fill="#fff"/>
    <rect id="Rectangle_221244" data-name="Rectangle 221244" width="3.456" height="1.481" rx="0.409" transform="translate(18.093 9.938)" fill="#fff"/>
    <rect id="Rectangle_221245" data-name="Rectangle 221245" width="3.456" height="1.481" rx="0.409" transform="translate(1.802 9.938)" fill="#fff"/>
    <rect id="Rectangle_221246" data-name="Rectangle 221246" width="1.481" height="3.455" rx="0.409" transform="translate(3.291 4.418) rotate(-45)" fill="#fff"/>
    <rect id="Rectangle_221247" data-name="Rectangle 221247" width="3.455" height="1.481" rx="0.409" transform="translate(16.566 5.814) rotate(-45)" fill="#fff"/>
  </g>
</svg>
